<svg xmlns="http://www.w3.org/2000/svg" viewBox="0 0 460 460">
  <path d="m0 0 2.106-.003c1.466 0 2.932.001 4.398.005 2.238.006 4.476 0 6.715-.006 1.427 0 2.854.002 4.281.004l3.922.003c2.666.104 4.806.328 7.328 1.13C27.233 4.975 25.632 8.775 24 12.57l-.784 1.826a14962.505 14962.505 0 0 0-5.716 13.3l-1.453 3.378a347.68 347.68 0 0 0-3.297 8.059c8.192-.029 13.678-1.341 20.527-5.918 2.473-1.082 2.473-1.082 5.153-.395 4.226 2.39 6.246 5.552 7.57 10.125l.75 3.188c4.507-4.096 7.517-8.639 10.688-13.813l1.57-2.524c1.066-1.714 2.129-3.43 3.189-5.148 1.912-3.096 3.838-6.184 5.767-9.27a229784238.754 229784238.754 0 0 1 3.63-5.827l.974-1.57 1.182-1.848 1.7-3.177c2.3-2.823 2.3-2.823 5.508-3.504l3.745.095 2 .026c2.101.033 4.198.108 6.297.185 1.427.03 2.854.057 4.281.082 3.491.066 6.98.17 10.469.293l1 2c-6.109 8.37-12.253 16.71-18.495 24.98a566.665 566.665 0 0 0-7.638 10.364l-1.523 2.113a581.263 581.263 0 0 0-2.867 4.023c-1.111 1.543-2.288 3.037-3.477 4.52h-2l-.766 1.648c-5.93 11.3-14.784 21.292-22.623 31.288-4.474 5.73-8.845 11.54-13.029 17.486-4.033 5.73-8.1 11.3-12.645 16.64-4.233 4.98-7.926 10.175-11.59 15.582-2.896 4.21-6.073 8.19-9.254 12.186a442.987 442.987 0 0 0-8.78 11.42 307.14 307.14 0 0 1-8.25 10.625c-3.592 4.445-6.901 9.05-10.194 13.717-3.428 4.84-7 9.556-10.646 14.233-1.83 2.35-3.57 4.695-5.223 7.175l-2-1c6.473-12.719 13.85-24.86 21.231-37.067 6.062-10.054 11.944-20.215 17.831-30.37l1.449-2.498c.44-.763.882-1.526 1.337-2.311l1.187-2.053a80.442 80.442 0 0 0 1.965-3.701h2l.83-2.188c1.138-2.734 2.434-5.229 3.893-7.804l1.62-2.867 1.72-3.016 1.752-3.093c3.772-6.63 7.617-13.21 11.644-19.69 1.945-2.951 1.945-2.951 2.541-6.342l-2.5 1.437c-4.206 1.878-6.887 2.49-11.5 2.563-2.625-1.688-2.625-1.688-5-4a744.352 744.352 0 0 0-6-4c-1.968-1.968-1.662-5.348-2-8-5.05 10.615-9.832 21.34-14.588 32.09-2.64 5.958-5.31 11.894-8.1 17.785-4.373 9.256-8.323 18.699-12.312 28.125l1.432-1.076 1.892-1.393 1.87-1.389c1.806-1.142 1.806-1.142 4.619-1.642 2.187.5 2.187.5 4.187 3.5 2 11.098-4.023 21.12-10 30-3.276-.597-3.873-.847-6.125-3.563-2.117-3.88-2.983-7.128-3.875-11.437-4.556 8.825-8.606 17.807-12.5 26.937a4608.996 4608.996 0 0 1-4.09 9.536c-2.274 5.265-4.67 10.469-7.089 15.667-1.632 3.532-3.177 7.09-4.696 10.672l-1.523 3.582-1.102 2.606c2.646.027 5.292.047 7.938.062l2.287.026c1.925.008 3.85-.036 5.775-.088l1-1c2.333-.041 4.667-.043 7 0 .859 3.434.976 5.617 0 9 7.038-5.274 12.19-11.974 17.621-18.797 3.132-3.928 6.39-7.73 9.692-11.516 4.211-4.852 8.093-9.836 11.812-15.082 3.621-5.032 7.361-10.137 11.793-14.488 2.625-2.67 4.868-5.591 7.144-8.555 3.757-4.837 7.588-9.59 11.563-14.25l1.387-1.626c.45-.53.902-1.059 1.367-1.604A466.976 466.976 0 0 0 42.75 125.57c3.68-4.844 7.596-9.372 11.719-13.843 2.577-2.93 4.933-5.98 7.281-9.094 3.015-3.999 6.1-7.814 9.5-11.5 3.375-3.666 6.488-7.472 9.5-11.438 3.29-4.328 6.598-8.633 10-12.875l2.188-2.738 1.812-1.95h2l.754-1.69c1.462-2.71 3.214-4.879 5.183-7.247l2.446-2.945a18540763787.326 18540763787.326 0 0 1 3.92-4.67c7.17-8.536 14.435-16.99 21.697-25.447l6.438-7.5 1.466-1.707 1.405-1.637 1.212-1.412c1.678-1.902 1.678-1.902 3.515-4.905C146.45.99 147.358.23 149.894-.39c2.676-.171 5.29-.15 7.97-.062l2.937.026c3.089.033 6.174.108 9.262.185 2.096.03 4.193.057 6.29.082 5.134.066 10.265.17 15.397.293 1.91 25.201 1.91 25.201-2.203 30.96-2.789 2.66-5.635 4.845-8.797 7.04-2.039 2.103-2.039 2.103-3.75 4.25-3.233 3.782-6.699 7.269-10.25 10.75a52151.309 52151.309 0 0 1-9.25 9.25l-2.344 2.344L148 71.883l-2.265 2.265a8869.06 8869.06 0 0 1-4.497 4.493c-2.215 2.219-4.425 4.444-6.633 6.671l-4.667 4.696-2.33 2.355c-4.176 4.193-8.432 8.193-12.918 12.05-3.363 2.98-6.484 6.199-9.627 9.407-3.954 4.033-7.865 7.818-12.313 11.313a561.45 561.45 0 0 0-3.574 4.379c-2.161 2.457-4.625 4.507-7.11 6.629-2.708 2.329-5.358 4.717-8.004 7.117l-2.699 2.445c-3.083 2.867-6.043 5.84-9 8.836-10.305 10.427-10.305 10.427-14.488 13.969-4.591 3.9-8.75 8.224-12.983 12.502-3.616 3.64-7.302 7.104-11.22 10.42-2.412 2.137-4.657 4.41-6.922 6.703-4.172 4.216-8.486 8.158-13 12-4.487 3.869-8.858 7.757-13 12-8.348 8.509-8.348 8.509-12.688 12.187-4.127 3.54-7.964 7.351-11.812 11.188l-1.928 1.915-1.79 1.796-1.624 1.626c-1.27 1.123-1.27 1.123-1.158 2.288 5.36.538 8.205-1.01 12.313-4.188l1.812-1.348a575.766 575.766 0 0 0 5.875-4.464l4.129-3.137c2.846-2.168 5.687-4.343 8.523-6.523 4.42-3.397 8.844-6.786 13.285-10.153l2.063-1.581c4.771-3.606 4.771-3.606 7-3.606v-2c1.446-1.262 1.446-1.262 3.48-2.688l2.259-1.601 2.448-1.711c1.67-1.186 3.34-2.374 5.008-3.563l2.497-1.777c4.613-3.318 9.082-6.818 13.565-10.308 28.8-22.352 28.8-22.352 31.743-22.352v-2c1.554-1.37 1.554-1.37 3.734-2.942l2.412-1.754 2.604-1.867 5.273-3.832 2.601-1.881c7.512-5.451 14.879-11.097 22.223-16.77 5.19-4.001 10.432-7.928 15.685-11.844a394.453 394.453 0 0 0 10.468-8.11 973.69 973.69 0 0 1 7.563-5.688l2.154-1.613a3760.88 3760.88 0 0 1 9.365-6.992c4.546-3.39 9.052-6.803 13.484-10.34l2.436-1.932a621.695 621.695 0 0 0 4.769-3.827l2.225-1.764 1.974-1.588c2.334-1.444 4.33-1.87 7.03-2.256.248 5.853.429 11.703.55 17.56.05 1.99.118 3.979.204 5.967.702 16.489.702 16.489-2.772 21.223-2.593 1.835-5.043 3.06-7.982 4.25a114.468 114.468 0 0 0-3.73 2.3l-3.458 2.012a259.79 259.79 0 0 0-14.687 9.313c-7.692 5.227-15.671 9.951-23.662 14.705a786.048 786.048 0 0 0-21.185 13.091c-7.923 5.042-16 9.828-24.092 14.592l-3.092 1.834-2.76 1.626c-2.078 1.36-3.673 2.695-5.334 4.527l2.5-.75c4.76-.34 7.666.984 11.5 3.75 2.086 2.125 3.885 4.222 5 7-.379 2.219-.379 2.219-1 4l-4 1-.188 2.625c-1.043 4.335-2.805 6.136-5.812 9.375 9.134-2.252 17.81-5.35 26.456-9.052 8.993-3.83 18.152-7.113 27.356-10.386 8.641-3.073 17.263-6.147 25.762-9.597 8.055-3.216 16.247-6.079 24.426-8.965v40l-11.398 2.887-11.112 2.82-7.634 1.934c-16.863 4.243-16.863 4.243-33.637 8.82-12.964 3.681-26.097 6.752-39.188 9.95-5.672 1.385-11.343 2.777-17.014 4.167l-6.241 1.528a2667.53 2667.53 0 0 0-21.624 5.383 688.49 688.49 0 0 1-33.402 7.573l-5.004 1.018c-14.208 2.874-28.456 5.488-42.746 7.92-2.808-3.46-3.348-5.257-3.188-9.75l.083-2.985.105-2.265-1.828-.184-2.422-.254c-.789-.08-1.578-.162-2.39-.246-2.36-.316-2.36-.316-4.2-1.108-2.356-.471-2.356-.471-4.51 1.543l-2.564 2.604-2.805 2.826-1.445 1.496c-1.45 1.5-2.918 2.98-4.39 4.458-5.527 5.354-5.527 5.354-9.446 11.865l2.25.125c3.97 1.263 4.788 3.264 6.75 6.875.496 3.656.496 3.656.438 7.5l-.004 3.844c-.46 3.869-1.428 6.339-3.434 9.656-2.893 2.143-6.424 2.627-9.902 3.34-2.24.589-2.24.589-4.375 2.257-4.162 2.144-7.843 1.227-12.371.641-3.846-.425-3.846-.425-7.375.918-1.152 1.847-1.152 1.847-1.055 4.227 1.525 3.703 4.085 5.376 7.328 7.492l1.68 1.258c4.269 2.82 7.195 2.97 12.254 2.37 7.391-.841 12.781.905 19.629 3.56l3.417 1.256c3.265 1.205 6.518 2.442 9.77 3.68 1.64.603 3.28 1.202 4.922 1.798 7.478 2.724 14.853 5.628 21.996 9.148 2.786 1.319 4.725 2.08 7.832 1.867 2.483-.795 2.483-.795 5.25-2.812 3.688.375 3.688.375 7 1 2.092 4.43 2.092 4.43 1.625 7.312l-.625 1.688 2.159.39c2.853.612 5.531 1.426 8.298 2.352l3.123 1.043 3.232 1.09 3.198 1.066c4.32 1.449 8.634 2.898 12.888 4.531 5.897 2.245 11.913 4.149 17.915 6.09l1.995.648c12.926 4.185 25.96 7.948 39.055 11.565l2.19.611c1.96.547 3.923 1.087 5.885 1.627 3.062.987 3.062.987 6.062 2.987.293 3.258.293 3.258.188 7.125l-.083 3.883-.105 2.992-3 1c1.39 4.155 2.817 8.297 4.25 12.437l1.2 3.588 1.19 3.408 1.08 3.158 1.28 2.409 4 1v15h-29v-13h4l-2-5h-13l-2 5h4v13h-22v-15l4-1c1.397-2.569 1.397-2.569 2.36-5.785l1.19-3.545 1.2-3.733 1.246-3.744c1.016-3.06 2.017-6.124 3.004-9.193h-3l-1-13c-13.112-5.152-26.287-10.114-39.5-15-36.971-13.674-36.971-13.674-53.625-21.313-2.494-1.133-4.99-2.26-7.488-3.386l-1.872-.844c-6.233-2.798-12.519-5.461-18.828-8.082l-2.924-1.216a873.633 873.633 0 0 0-7.763-3.16l-2.338-.942c-5.26-2.093-5.26-2.093-10.662-1.057-2.762 2.762-2.579 5.207-3 9l2-.095c3.02-.126 6.04-.203 9.063-.28l3.146-.153c5.112-.097 8.855-.053 12.99 3.172 2.172 2.232 2.79 3.316 3.66 6.391-.292 8.08-.292 8.08-2.984 12.277-3.63 2.131-4.86 1.69-8.875.688-2.746-1.34-2.746-1.34-5.438-2.938-3.16-1.812-5.935-3.341-9.5-4.125-3.062-.937-3.062-.937-5.062-3.625l-2-2.312c-4.492-.092-7.963 1.338-12.125 2.937-14.944 5.579-31.22 5.557-45.875-.937-7.268-3.577-13.439-7.206-18-14l-1.582-2.313c-8.741-13.611-10.047-29.104-7.098-44.78 3.92-16.764 15.333-27.717 29.18-37.095 3.5-1.812 3.5-1.812 5.547-1.765 3.764 1.837 4.537 5.96 5.965 9.672 1.365 4.534 1.954 8.611.988 13.28-2 3.063-2 3.063-4 5v1l2.246.263c9.59 1.279 18.543 3.848 27.754 6.738 5.538-6.48 11.049-12.952 16.23-19.723 3.497-4.5 7.145-8.88 10.77-13.277l-.703-1.65a5574.81 5574.81 0 0 1-3.172-7.475l-1.105-2.594c-4.095-9.677-6.408-16.228-2.782-26.512l.716-2.105c.511-1.5 1.026-3 1.545-4.498 1.401-4.053 2.772-8.116 4.146-12.178l.857-2.529c2.796-8.28 5.41-16.612 7.998-24.96 3.93-12.641 8.04-25.212 12.26-37.76 3.71-11.04 7.28-22.117 10.74-33.24 3.931-12.637 8.036-25.206 12.257-37.75a1454.175 1454.175 0 0 0 10.24-31.653c3.558-11.435 7.146-22.861 10.94-34.221l1.072-3.325 1.018-2.995.867-2.61C-11.25 1.133-11.25 1.133-9.58.356-6.376.05-3.22.003 0 0Zm41.836 218.219c-5.718 3.705-11.557 7.142-17.461 10.539-8.167 4.734-16.28 9.542-24.313 14.5l-2.624 1.612c-7.366 4.104-7.366 4.104-12.688 10.263-.248 4.145-.248 4.145 1 8 6.548-1.333 12.71-3.134 19-5.375l2.92-1.029c3.363-1.19 6.722-2.392 10.08-3.596l2.004-.718a4715.89 4715.89 0 0 0 13.01-4.684c1.43-.517 2.859-1.033 4.289-1.548 7.778-2.808 15.476-5.734 23.09-8.963 3.416-1.425 6.864-2.677 10.357-3.9l3.61-1.27 2.64-.917v-1c-5.186-.17-9.677.065-14.75 1.187-4.868.95-4.868.95-8.188-.25-3.242-3.045-5.643-5.681-7.062-9.937.938-3.188.938-3.188 2-6-2.942 0-4.47 1.475-6.914 3.086ZM79.75 419.133a1150.52 1150.52 0 0 0-2 4.875l-1.125 2.742c-.99 2.273-.99 2.273-.875 4.383h8l-3-12h-1Z" style="fill:#fff" transform="translate(237.25 .867)"/>
  <path d="m0 0 2.005.004C4.114.01 6.223.022 8.332.035l4.295.014c3.506.01 7.012.029 10.518.049-.55 12.869-1.936 25.534-3.618 38.3-.26 2.013-.521 4.026-.78 6.04a7635.38 7635.38 0 0 1-1.64 12.577 9078.637 9078.637 0 0 0-2.074 15.944c-.537 4.15-1.076 8.3-1.617 12.45l-.762 5.87c-1.24 9.532-2.522 19.052-3.973 28.554-1.658 10.869-3.103 21.763-4.54 32.663-.478 3.622-.958 7.245-1.44 10.867a33791.98 33791.98 0 0 0-4.086 30.85c-.836 6.333-1.676 12.664-2.52 18.996-.317 2.39-.633 4.781-.947 7.172-4.618 35.172-4.618 35.172-9.003 40.717.04.825.082 1.65.125 2.5-.125 2.5-.125 2.5-2.313 4.75-4.718 2.935-8.444 3.054-13.812 1.812-8.888-2.83-13.392-9.906-18.669-17.218-3.072-4.583-3.072-4.583-7.331-7.844l-.188 2.25c-1.085 3.674-2.547 4.82-5.812 6.75-3.629-.096-4.817-.818-7.422-3.399l-2.328-2.976c-.78-.977-1.558-1.955-2.36-2.961-2.98-4.199-3.504-7.58-2.89-12.664 1.82-1.945 3.872-3.373 6-5-5.131-9.04-10.322-17.69-16.715-25.91-3.596-4.863-6.69-10.02-9.856-15.168-5.534-9.215-5.534-9.215-12.014-17.737-1.77-2.732-1.779-4.36-1.756-7.596v-3.276l.048-3.516.012-3.615c.017-3.811.055-7.622.093-11.432.015-2.584.029-5.167.041-7.75.033-6.334.083-12.667.147-19 6.249 2.083 8.903 10.725 11.717 16.305 1.382 2.771 2.751 5.548 4.117 8.327 6.043 12.276 12.18 24.497 18.595 36.583a614.418 614.418 0 0 1 8.796 17.272c2.043 4.145 4.238 8.183 6.496 12.214 2.066 3.715 4.05 7.473 6.029 11.236.423.806.847 1.611 1.284 2.44 4.445 8.48 8.721 17.042 12.966 25.623-2.485-11.018-5.987-21.695-9.438-32.438-.864-2.702-1.728-5.405-2.59-8.108l-1.677-5.24A938.4 938.4 0 0 1-59.918 179c-.95-2.94-2.04-5.812-3.135-8.7-1.475-4.05-2.72-8.17-3.99-12.288l-.906-2.917c-.64-2.058-1.278-4.116-1.916-6.175-5.348-17.263-10.76-34.503-16.4-51.673A773.519 773.519 0 0 1-92.66 76.78l-.666-2.23c-1.53-5.212-1.53-5.212-1.53-7.453 8.811-2.937 18.836-2.12 28-2 1.86 6.633 3.564 13.261 5 20l.883-1.907c2.083-4.348 4.149-8.33 7.18-12.093 2.374-2.954 3.542-5.521 4.688-9.125 2.314-6.196 6.45-8.197 12.25-10.875l3.109-1.508c5.526-2.516 8.824-3.937 14.89-2.492 2.327 5.984 4.43 11.58 5 18h2l-.015-2.684c-.029-9.057.113-18.098.388-27.15.065-2.165.125-4.33.184-6.494.267-9.244.76-18.45 1.444-27.672C-6.378-.062-3.667-.015 0 0Zm-39.855 244.098 1 2Zm2 4 1 2Z" style="fill:#fff" transform="translate(140.855 .902)"/>
  <path d="M0 0c6.58 3.358 10.015 9.023 14 15 2.048.656 2.048.656 4.479.872l2.856.356 3.142.35 3.296.4c3.616.437 7.234.854 10.852 1.272 2.528.302 5.055.606 7.583.912 4.606.555 9.212 1.107 13.82 1.652 13.101 1.55 26.193 3.176 39.285 4.811l3.535.44c14.65 1.826 29.287 3.718 43.902 5.81l2.2.314C162.355 34.11 162.355 34.11 165 35c1.24 2.482 1.13 4.164 1.133 6.938l.004 2.96-.012 3.102.012 3.102-.004 2.96-.004 2.723C166 59 166 59 165 61c-7.214-.68-14.215-1.929-21.313-3.375l-3.185-.633c-5.171-1.042-10.296-2.17-15.404-3.488-6.727-1.716-13.518-2.964-20.348-4.191l-3.738-.682C98.008 48.084 95.005 47.54 92 47l.945 2.012 1.18 2.675 1.195 2.637c.85 3.343.367 4.71-1.32 7.676-3.209 2.14-5.053 2.5-8.813 3.063l-3.082.472L79 66l-2.93.73c-3.98.35-6.817-.92-10.382-2.48-5.782-2.377-11.189-3.835-17.376-4.688C37.712 58.008 27.756 53.633 21 45c-1.094-2.872-1.278-4.166-.313-7.063C22.227 35.666 23.997 33.87 26 32l-2.545-.402c-3.604-.624-7.157-1.376-10.728-2.164l-4.38-.96-2.328-.511c-16.298-3.574-32.631-6.941-49-10.172-3.882-.766-7.763-1.538-11.642-2.315-1.638-.328-3.276-.654-4.914-.98-2.549-.507-5.096-1.024-7.643-1.543l-2.322-.458C-74.566 11.45-79.196 9.92-84 8V6c7.094-.155 13.9.456 20.938 1.313 11.236 1.312 22.48 2.399 33.75 3.375l2.321.2c4.33.375 8.66.746 12.991 1.112l.36-1.876.503-2.46.486-2.439C-12 3-12 3-9.813.375-6-1.489-4.058-1.139 0 0Z" style="fill:#fff" transform="translate(264 326)"/>
  <path d="m0 0 5.62.014c4.439.01 8.878.03 13.317.049v29a24131.29 24131.29 0 0 1-73.082-4.799c-5.843-.391-11.685-.782-17.527-1.17-5.761-.382-11.522-.767-17.283-1.154-2.156-.145-4.312-.288-6.469-.43a1398.029 1398.029 0 0 1-37.854-3.007 626.133 626.133 0 0 0-16.34-1.292l-2.797-.193c-2.84-.196-5.682-.388-8.523-.58l-5.914-.407c-4.736-.325-9.473-.648-14.21-.968l1 2c.412 4.635-.126 7.304-3 11-2.835 2.226-4.07 1.993-7.75 1.625l-3.25-.625-1-6-3.188 1.437c-7.44 3.123-7.44 3.123-11.875 1.313l-2.938-1.75-2.375-1.125c-2.426-2.8-1.925-5.425-1.765-9.012l.14-1.864-7-1 1-2c2.27-.387 2.27-.387 5.322-.58l3.455-.232 3.795-.22 3.946-.25c14.058-.875 28.13-1.502 42.202-2.099 3.687-.157 7.374-.318 11.06-.479 6.185-.269 12.37-.535 18.555-.799 7.05-.3 14.098-.606 21.147-.913 6.905-.301 13.81-.6 20.716-.897l8.643-.375c15.3-.665 30.6-1.263 45.908-1.733l2.068-.065C-24.161.047-12.09-.06 0 0Z" style="fill:#fff" transform="translate(410.063 291.938)"/>
  <path d="M0 0h34l5 13 3 4 7-17h34v14h-4v27h4v15H54V41h4l-1-23-14 38H33c-1.674-4.304-3.346-8.61-5.017-12.915a6673.14 6673.14 0 0 0-1.705-4.388c-.82-2.11-1.64-4.22-2.458-6.33l-.764-1.96C21.593 26.626 20.283 22.85 19 19l-1 22h4v15H0V41h4V14H0V0Z" style="fill:#fff" transform="translate(203 403)"/>
  <path d="M0 0h38v12l-3 1 7 5 5-5-3-1V0h32v14l-3.938.063C66.026 14.7 62.349 18.002 58 22l-1.758 1.602C54.78 24.937 54.78 24.937 55 27a162.14 162.14 0 0 0 6.875 5.5c1.29.988 2.579 1.978 3.867 2.969l1.746 1.326C69 38 69 38 71 40l7 1v15H40V43l3-1c-2.229-2.646-2.229-2.646-5-5-3.078-.093-3.979.98-6.25 3.063L30 42l3 1v13H0V41l3.531-.152c5.133-.642 8.133-3.114 11.969-6.41l1.914-1.577A381.636 381.636 0 0 0 22 29c-1.3-3.9-3.231-5.032-6.438-7.563C10.102 17.102 10.102 17.102 8 15c-2.655-.565-5.291-.738-8-1V0Z" style="fill:#fff" transform="translate(352 403)"/>
  <path d="M0 0v24c-31.395 1.502-62.788 2.602-94.207 3.47-8.975.248-17.95.5-26.925.756-3.068.087-6.137.171-9.205.255-10.064.28-20.116.645-30.17 1.19-5.752.31-11.482.457-17.243.392l-2.473-.014c-1.925-.012-3.851-.03-5.777-.049l1-2c10.281-3.045 21.288-4.254 31.871-5.89l5.141-.805c4.54-.71 9.08-1.416 13.621-2.12 3.76-.583 7.52-1.17 11.28-1.757 22.591-3.523 45.19-6.98 67.811-10.304C-43.92 5.453-32.592 3.68-21.28 1.727c1.113-.19 1.113-.19 2.25-.382 1.834-.312 3.667-.629 5.5-.947C-9.047-.107-4.512 0 0 0Z" style="fill:#fff" transform="translate(429 259)"/>
  <path d="M0 0h40v14l-3 1c1.39 4.155 2.817 8.297 4.25 12.438.396 1.184.791 2.368 1.2 3.587l1.19 3.409 1.08 3.158L46 40l4 1v15H21V43h4l-1-6-14 1-2 5h4v13h-22V41l4-1c1.397-2.568 1.397-2.568 2.36-5.785l1.19-3.545 1.2-3.733 1.246-3.744C1.012 20.133 2.013 17.07 3 14H0V0Zm17 17a1150.52 1150.52 0 0 0-2 4.875l-1.125 2.742c-.99 2.273-.99 2.273-.875 4.383h8l-3-12h-1Z" style="fill:#fff" transform="translate(92 403)"/>
  <path d="M0 0h56v24H45V14h-6v27h5v15H12V41h5V14h-5v10H0V0Z" style="fill:#fff" transform="translate(141 403)"/>
  <path d="M0 0h55v19H40v-5H28v7h10v13H28v8h7v14H0V41h6V14H0V0Z" style="fill:#fff" transform="translate(30 403)"/>
  <path d="M0 0c1.667 1.667 1.211 3.629 1.25 5.918C1.189 11.826-.034 16.774-2 22.313l-.96 2.749C-7.548 37.74-13.148 49.95-26 56c-3.94.035-5.431-.461-8.3-3.18l-2.013-2.695-2.05-2.68c-3.28-4.9-3.304-9.738-2.637-15.445 2.843-9.914 7.183-22.039 16-28C-16.949.42-8.785-2.46 0 0Z" style="fill:#fff" transform="translate(211 22)"/>
  <path d="M0 0c1.82.05 1.82.05 4.125.313L6.383.55C9 1 9 1 12.18 1.988 16.8 3.212 21.247 3.534 26 3.875c23.022 1.943 23.022 1.943 27.824 7.074C56.208 15.107 57.52 19.196 57 24c-2 3-2 3-3.936 3.508l-2.353.187-2.606.23c-.9.067-1.802.132-2.73.2l-5.29.445-2.618.2c-2.211.206-4.347.547-6.533.925-4.867.377-8.616-.556-13.247-1.945l-2.416-.66C11.344 25.96 8.71 25.198 6 22c-.809-2.05-.809-2.05-1.438-4.313-.971-3.194-1.812-5.05-3.75-7.875C-1.283 6.563-1.44 4.795-1 1l1-1Z" style="fill:#fff" transform="translate(273 313)"/>
  <path d="M0 0c1.813 1.324 1.813 1.324 2.563 4.45.489 7.585.291 12.85-2.5 19.874-2.486 6.552-4.412 13.035-5.78 19.91-.662 3.017-1.218 4.835-3.416 7.055-2.71 1.365-4.213.903-7.055.035l-.867-3.48a864.537 864.537 0 0 0-2.203-8.633c-4.936-19.371-4.936-19.371-1.43-27.262 2.608-2.738 5.08-4.52 8.344-6.383 2.194-1.224 2.194-1.224 4.313-2.734l2.094-1.445 1.89-1.34C-2.187-.676-2.187-.676 0 0Z" style="fill:#fff" transform="translate(168.188 141.676)"/>
  <path d="M0 0c1.034 6.94 1.286 13.8 1.375 20.813l.113 3.369C1.574 32.274-.162 37.923-4 45l-1.688 3.625C-7 51-7 51-9 52c-1.938-.5-1.938-.5-4-2-2.73-5.231-4.337-10.915-6.133-16.523-.636-2.39-.636-2.39-1.867-3.477.33-5.598 1.925-8.432 5-13a190.108 190.108 0 0 0 1.813-5.5C-11.954 5.053-7.715-1.403 0 0Z" style="fill:#fff" transform="translate(182 82)"/>
  <path d="M0 0c2.968 7.137 5.49 14.163 5 22-2.507 5.129-8.043 8.356-13 11-3 .813-3 .813-6 0-4.372-2.81-8.104-5.656-11-10-.76-3.77-.737-7.356.852-10.898C-19.338 5.578-8.23-.762 0 0Z" style="fill:#fff" transform="translate(387 86)"/>
  <path d="M0 0c1.8 1.395 1.8 1.395 3 3-.177 4.784-1.111 8.182-4 12-2.748 2.466-5.472 4.824-9 6-3.118-.271-5.79-.929-8.75-1.938-4.345-1.42-8.76-2.228-13.25-3.062-.606-4.851-.183-7.27 2.75-11.25C-21.517-5.014-10.876-4.694 0 0Z" style="fill:#fff" transform="translate(140 276)"/>
  <path d="M0 0c4.285.771 5.997 2.583 9.125 5.563-.722 4.876-3.582 7.85-7.313 10.875-3.552 1.487-5.981.924-9.687.125-1.188-2.063-1.188-2.063-2-5C-8.111 5.976-6.1 1.193 0 0Z" style="fill:#fff" transform="translate(73.875 261.438)"/>
</svg>
