<?xml version="1.0" encoding="UTF-8"?>
<svg version="1.1" xmlns="http://www.w3.org/2000/svg" width="460" height="460">
<path style="fill:white" d="M0 0 C0.69512695 -0.00095673 1.39025391 -0.00191345 2.10644531 -0.00289917 C3.57226655 -0.00357794 5.03809083 -0.0017448 6.50390625 0.00244141 C8.74225645 0.00779398 10.98040601 0.00248621 13.21875 -0.00390625 C14.64583377 -0.00324541 16.07291742 -0.00196414 17.5 0 C18.79421875 0.00112793 20.0884375 0.00225586 21.421875 0.00341797 C24.08817036 0.10708115 26.22798376 0.33114888 28.75 1.1328125 C27.23306475 4.9752381 25.6320237 8.77541867 24 12.5703125 C23.7412207 13.17286865 23.48244141 13.7754248 23.21582031 14.39624023 C22.11745485 16.95368286 21.01764604 19.51050405 19.91796875 22.06738281 C19.11147736 23.94314418 18.30572341 25.81922115 17.5 27.6953125 C17.02046875 28.81035156 16.5409375 29.92539062 16.046875 31.07421875 C14.91316402 33.74800096 13.81639695 36.43160891 12.75 39.1328125 C20.94229226 39.10421811 26.42764193 37.791643 33.27734375 33.21484375 C35.75 32.1328125 35.75 32.1328125 38.4296875 32.8203125 C42.65551095 35.21067728 44.6762481 38.37235138 46 42.9453125 C46.37125 44.523125 46.37125 44.523125 46.75 46.1328125 C51.2565585 42.03668738 54.26658032 37.4943837 57.4375 32.3203125 C57.95570313 31.48733643 58.47390625 30.65436035 59.0078125 29.79614258 C60.07360539 28.08198149 61.13659288 26.36607297 62.19677734 24.6484375 C64.10875299 21.55177024 66.0349722 18.46416885 67.96411133 15.37817383 C68.79507757 14.04834386 69.6244546 12.71751893 70.4519043 11.38549805 C70.82871338 10.7800415 71.20552246 10.17458496 71.59375 9.55078125 C71.91537109 9.03281982 72.23699219 8.5148584 72.56835938 7.98120117 C72.95830078 7.37123291 73.34824219 6.76126465 73.75 6.1328125 C74.31106445 5.08440186 74.87212891 4.03599121 75.45019531 2.95581055 C77.75 0.1328125 77.75 0.1328125 80.95800781 -0.54833984 C82.19389648 -0.51691895 83.42978516 -0.48549805 84.703125 -0.453125 C85.36334656 -0.44463531 86.02356812 -0.43614563 86.70379639 -0.42739868 C88.80422053 -0.393916 90.90074547 -0.31867271 93 -0.2421875 C94.4270277 -0.21208006 95.85411586 -0.18470558 97.28125 -0.16015625 C100.77209173 -0.09414968 104.2606651 0.00932424 107.75 0.1328125 C108.08 0.7928125 108.41 1.4528125 108.75 2.1328125 C102.64120826 10.50233819 96.49727706 18.84239899 90.25537109 27.11328125 C87.67259792 30.54238212 85.12147379 33.98962115 82.6171875 37.4765625 C82.11445313 38.17394531 81.61171875 38.87132812 81.09375 39.58984375 C80.13243528 40.92699161 79.17647727 42.2680109 78.2265625 43.61328125 C77.11582036 45.15560693 75.93889258 46.64989273 74.75 48.1328125 C74.09 48.1328125 73.43 48.1328125 72.75 48.1328125 C72.37101562 48.94878906 72.37101562 48.94878906 71.984375 49.78125 C66.05309229 61.08071896 57.20028683 71.07308049 49.36132812 81.06884766 C44.88733124 86.79963094 40.51645877 92.60865742 36.33203125 98.5546875 C32.29862159 104.28538235 28.2321142 109.85574257 23.6875 115.1953125 C19.45365785 120.17436363 15.76061508 125.37011882 12.09765625 130.77734375 C9.20076289 134.98729761 6.02381374 138.96665894 2.84277344 142.96337891 C-0.14991441 146.7246863 -3.06844623 150.52613265 -5.9375 154.3828125 C-8.61898617 157.98665384 -11.35114497 161.52476852 -14.1875 165.0078125 C-17.77902771 169.45277254 -21.08849974 174.05825759 -24.38061523 178.7253418 C-27.80857257 183.56593705 -31.38038342 188.28058828 -35.02685547 192.95825195 C-36.85711928 195.30775284 -38.59647958 197.65253188 -40.25 200.1328125 C-40.91 199.8028125 -41.57 199.4728125 -42.25 199.1328125 C-35.77694699 186.41419397 -28.40018649 174.27231351 -21.01855469 162.06640625 C-14.95738513 152.0124287 -9.07543617 141.85133461 -3.1875 131.6953125 C-2.70958008 130.87111816 -2.23166016 130.04692383 -1.73925781 129.19775391 C-1.29807617 128.4351123 -0.85689453 127.6724707 -0.40234375 126.88671875 C-0.01038818 126.20939697 0.38156738 125.5320752 0.78540039 124.83422852 C1.47430443 123.61910012 2.12531995 122.38217259 2.75 121.1328125 C3.41 121.1328125 4.07 121.1328125 4.75 121.1328125 C5.02384521 120.41077637 5.29769043 119.68874023 5.57983398 118.94482422 C6.71763084 116.21059844 8.01390905 113.71604453 9.47265625 111.140625 C10.00737549 110.19469482 10.54209473 109.24876465 11.09301758 108.27416992 C11.66044678 107.27877197 12.22787598 106.28337402 12.8125 105.2578125 C13.39088623 104.23727783 13.96927246 103.21674316 14.56518555 102.1652832 C18.3372724 95.53474748 22.18248023 88.95458744 26.20922852 82.47509766 C28.15443359 79.52395873 28.15443359 79.52395873 28.75 76.1328125 C27.925 76.6071875 27.1 77.0815625 26.25 77.5703125 C22.04442397 79.4478018 19.36267578 80.05959542 14.75 80.1328125 C12.125 78.4453125 12.125 78.4453125 9.75 76.1328125 C7.75591923 74.79064275 5.75698975 73.4556012 3.75 72.1328125 C1.78177114 70.16458364 2.08751619 66.78472541 1.75 64.1328125 C-3.2995754 74.74758896 -8.08243355 85.47328451 -12.83813477 96.22241211 C-15.47876152 102.18090871 -18.14834454 108.11742824 -20.9375 114.0078125 C-25.31101425 123.26364092 -29.26075814 132.70654315 -33.25 142.1328125 C-32.77731689 141.77767578 -32.30463379 141.42253906 -31.81762695 141.05664062 C-31.19331787 140.59708984 -30.56900879 140.13753906 -29.92578125 139.6640625 C-29.30872314 139.20580078 -28.69166504 138.74753906 -28.0559082 138.27539062 C-26.25 137.1328125 -26.25 137.1328125 -23.4375 136.6328125 C-21.25 137.1328125 -21.25 137.1328125 -19.25 140.1328125 C-17.24933498 151.23123845 -23.27335519 161.25322593 -29.25 170.1328125 C-32.52637566 169.53648471 -33.12335916 169.28552645 -35.375 166.5703125 C-37.49168588 162.68972172 -38.35836766 159.44236879 -39.25 155.1328125 C-43.80562297 163.95779294 -47.85566063 172.9399934 -51.75 182.0703125 C-52.84144344 184.62208784 -53.93519857 187.17285678 -55.03125 189.72265625 C-55.29835785 190.34428146 -55.5654657 190.96590668 -55.84066772 191.60636902 C-58.11392916 196.8710337 -60.50918138 202.07454977 -62.92871094 207.27319336 C-64.56060627 210.80504666 -66.10553814 214.36372383 -67.625 217.9453125 C-68.37910156 219.71841797 -68.37910156 219.71841797 -69.1484375 221.52734375 C-69.51195312 222.38714844 -69.87546875 223.24695313 -70.25 224.1328125 C-67.60409986 224.15965929 -64.95846904 224.17957607 -62.3125 224.1953125 C-61.55775391 224.20369141 -60.80300781 224.21207031 -60.02539062 224.22070312 C-58.10005687 224.22933691 -56.17464419 224.18505583 -54.25 224.1328125 C-53.92 223.8028125 -53.59 223.4728125 -53.25 223.1328125 C-50.91702567 223.09188313 -48.58294775 223.09039527 -46.25 223.1328125 C-45.39143345 226.5670787 -45.27408417 228.74963763 -46.25 232.1328125 C-39.2115077 226.85925936 -34.05934856 220.15882099 -28.62890625 213.3359375 C-25.49724901 209.4076385 -22.23941773 205.60560484 -18.9375 201.8203125 C-14.725835 196.96777156 -10.84422493 191.98393807 -7.125 186.73828125 C-3.5036224 181.7060753 0.23614533 176.60058837 4.66796875 172.25 C7.29316553 169.58047532 9.53567233 166.65895183 11.8125 163.6953125 C15.56905453 158.85774878 19.39971478 154.10490265 23.375 149.4453125 C23.83261719 148.90849854 24.29023438 148.37168457 24.76171875 147.81860352 C25.21289062 147.28936279 25.6640625 146.76012207 26.12890625 146.21484375 C31.8668903 139.48314233 37.40359277 132.61537666 42.75 125.5703125 C46.42928647 120.72590685 50.3461219 116.1975817 54.46875 111.7265625 C57.04596954 108.79629919 59.40175084 105.74695216 61.75 102.6328125 C64.76497455 98.6344924 67.85083307 94.81923298 71.25 91.1328125 C74.62466999 87.46701781 77.73766723 83.6608931 80.75 79.6953125 C84.03979617 75.36686968 87.34813556 71.06173964 90.75 66.8203125 C91.8328125 65.46486328 91.8328125 65.46486328 92.9375 64.08203125 C93.535625 63.43878906 94.13375 62.79554687 94.75 62.1328125 C95.41 62.1328125 96.07 62.1328125 96.75 62.1328125 C96.99878906 61.57464844 97.24757813 61.01648437 97.50390625 60.44140625 C98.96614398 57.7323702 100.71844013 55.5631693 102.6875 53.1953125 C103.89792969 51.73738281 103.89792969 51.73738281 105.1328125 50.25 C106.00452934 49.2103678 106.87693556 48.17131328 107.75 47.1328125 C108.18022461 46.62008789 108.61044922 46.10736328 109.05371094 45.57910156 C116.22382895 37.0442622 123.48783462 28.58929233 130.75 20.1328125 C132.89635913 17.63326324 135.04209058 15.13317692 137.1875 12.6328125 C137.9134436 11.78795288 137.9134436 11.78795288 138.65405273 10.92602539 C139.11755127 10.38582764 139.5810498 9.84562988 140.05859375 9.2890625 C140.45876709 8.82306641 140.85894043 8.35707031 141.27124023 7.87695312 C142.94883662 5.97523959 142.94883662 5.97523959 144.78613281 2.97216797 C146.45002312 0.9892041 147.35802119 0.22859192 149.89442444 -0.39117432 C152.57027632 -0.56197302 155.18340267 -0.54172865 157.86328125 -0.453125 C159.31760811 -0.44039047 159.31760811 -0.44039047 160.80131531 -0.42739868 C163.88952065 -0.39388619 166.97508778 -0.31860978 170.0625 -0.2421875 C172.15946742 -0.21208517 174.25647589 -0.18470983 176.35351562 -0.16015625 C181.48668925 -0.09410157 186.6178978 0.00940663 191.75 0.1328125 C193.65940301 25.33426172 193.65940301 25.33426172 189.546875 31.09375 C186.758043 33.75304609 183.91164477 35.93805774 180.75 38.1328125 C178.71148664 40.2359397 178.71148664 40.2359397 177 42.3828125 C173.76692977 46.1650406 170.30137375 49.65184043 166.75 53.1328125 C165.08180487 54.79797454 163.41550187 56.46496044 161.75 58.1328125 C160.33341952 59.54956535 158.91674375 60.96622292 157.5 62.3828125 C156.7265625 63.15625 155.953125 63.9296875 155.15625 64.7265625 C152.77083333 67.11197917 150.38541667 69.49739583 148 71.8828125 C147.25258545 72.63030762 146.5051709 73.37780273 145.73510742 74.14794922 C144.2367648 75.64610756 142.73769723 77.14354092 141.23828125 78.640625 C139.02251237 80.85987233 136.81343445 83.0854959 134.60546875 85.3125 C133.04954101 86.87766565 131.4935498 88.4427682 129.9375 90.0078125 C129.16857422 90.78511719 128.39964844 91.56242187 127.60742188 92.36328125 C123.43235231 96.55596714 119.17589077 100.55625954 114.69018555 104.41308594 C111.32728791 107.39386497 108.20624882 110.61181087 105.0625 113.8203125 C101.10931897 117.85343652 97.19766354 121.63821972 92.75 125.1328125 C91.55337237 126.58817043 90.35769643 128.04438753 89.17578125 129.51171875 C87.01498814 131.96851092 84.55106333 134.01900131 82.06640625 136.140625 C79.35797048 138.46997111 76.70836588 140.8576596 74.0625 143.2578125 C73.17175781 144.06476563 72.28101563 144.87171875 71.36328125 145.703125 C68.27979085 148.56998752 65.31971843 151.54293761 62.36206055 154.53857422 C52.05831611 164.96599843 52.05831611 164.96599843 47.875 168.5078125 C43.28382892 172.40742643 39.12561159 176.73222733 34.89208984 181.01025391 C31.27577987 184.64992632 27.59006312 188.11429755 23.671875 191.4296875 C21.26026068 193.56680913 19.01460743 195.84075529 16.75 198.1328125 C12.57835882 202.34910427 8.26447549 206.29051243 3.75 210.1328125 C-0.73741135 214.00184687 -5.10823478 217.89002861 -9.25 222.1328125 C-17.59805915 230.64203109 -17.59805915 230.64203109 -21.9375 234.3203125 C-26.06463856 237.85906063 -29.90212376 241.67149868 -33.75 245.5078125 C-34.38639404 246.13969482 -35.02278809 246.77157715 -35.6784668 247.42260742 C-36.26926025 248.01533447 -36.86005371 248.60806152 -37.46875 249.21875 C-38.2721582 250.0238501 -38.2721582 250.0238501 -39.09179688 250.84521484 C-40.36146037 251.96808174 -40.36146037 251.96808174 -40.25 253.1328125 C-34.88931819 253.67129178 -32.04538905 252.12247983 -27.9375 248.9453125 C-27.33921387 248.5004248 -26.74092773 248.05553711 -26.12451172 247.59716797 C-24.15410413 246.12454756 -22.20136842 244.6305505 -20.25 243.1328125 C-18.87394921 242.08690888 -17.49764301 241.04134122 -16.12109375 239.99609375 C-13.2747652 237.82830783 -10.43422673 235.65319313 -7.59765625 233.47265625 C-3.17840942 230.07639249 1.24604518 226.68749864 5.6875 223.3203125 C6.36796387 222.79840332 7.04842773 222.27649414 7.74951172 221.73876953 C12.52112956 218.1328125 12.52112956 218.1328125 14.75 218.1328125 C14.75 217.4728125 14.75 216.8128125 14.75 216.1328125 C16.19604492 214.87109375 16.19604492 214.87109375 18.23046875 213.4453125 C18.97562744 212.91679687 19.72078613 212.38828125 20.48852539 211.84375 C21.29668701 211.27914062 22.10484863 210.71453125 22.9375 210.1328125 C24.60786637 208.94685401 26.27713186 207.7593435 27.9453125 206.5703125 C28.7693457 205.98378906 29.59337891 205.39726562 30.44238281 204.79296875 C35.05468597 201.47476504 39.52362734 197.97464168 44.00732422 194.48535156 C72.80740072 172.1328125 72.80740072 172.1328125 75.75 172.1328125 C75.75 171.4728125 75.75 170.8128125 75.75 170.1328125 C77.30371094 168.76342773 77.30371094 168.76342773 79.484375 167.19140625 C80.28020996 166.61229492 81.07604492 166.03318359 81.89599609 165.43652344 C83.18497803 164.51274902 83.18497803 164.51274902 84.5 163.5703125 C86.25806511 162.29331645 88.01587808 161.0159732 89.7734375 159.73828125 C90.63163086 159.11743652 91.48982422 158.4965918 92.37402344 157.85693359 C99.88616745 152.40576621 107.25265037 146.76040804 114.59716797 141.08642578 C119.78614957 137.08597322 125.02917505 133.15872779 130.28222656 129.24291992 C133.82335702 126.59867942 137.29920433 123.89452573 140.75 121.1328125 C143.25866875 119.22068648 145.78538266 117.33295876 148.3125 115.4453125 C149.0235791 114.91276855 149.7346582 114.38022461 150.46728516 113.83154297 C153.58557218 111.49651237 156.70650139 109.16517459 159.83203125 106.83984375 C164.37838132 103.45074643 168.88435827 100.03728117 173.31640625 96.5 C174.12029785 95.86239746 174.92418945 95.22479492 175.75244141 94.56787109 C177.34810564 93.29985077 178.93788004 92.02437504 180.52099609 90.74072266 C181.25527832 90.1585498 181.98956055 89.57637695 182.74609375 88.9765625 C183.39763428 88.45255859 184.0491748 87.92855469 184.72045898 87.38867188 C187.05410913 85.94463286 189.05072222 85.51946976 191.75 85.1328125 C191.99805523 90.98577108 192.17903011 96.83564654 192.29931641 102.69262695 C192.34946992 104.68242701 192.41761595 106.67186095 192.50439453 108.66040039 C193.20567581 125.14876072 193.20567581 125.14876072 189.73217773 129.88305664 C187.13920618 131.71795014 184.68860119 132.94357196 181.75 134.1328125 C180.49281839 134.87708255 179.24729606 135.64173703 178.01953125 136.43359375 C176.87871094 137.09746094 175.73789062 137.76132813 174.5625 138.4453125 C169.55091382 141.39665014 164.67801113 144.47909824 159.875 147.7578125 C152.18302148 152.98536061 144.20354675 157.70916375 136.21337891 162.46337891 C129.07679641 166.71625621 122.02628423 171.07756519 115.02832031 175.55395508 C107.10510023 180.59639015 99.02832979 185.38237705 90.93554688 190.14648438 C89.91525391 190.75169922 88.89496094 191.35691406 87.84375 191.98046875 C86.47766602 192.7849646 86.47766602 192.7849646 85.08398438 193.60571289 C83.0062468 194.96515312 81.41079898 196.3014728 79.75 198.1328125 C80.575 197.8853125 81.4 197.6378125 82.25 197.3828125 C87.01057914 197.04277113 89.9158488 198.36719524 93.75 201.1328125 C95.83601321 203.25818445 97.6350711 205.35462901 98.75 208.1328125 C98.37109375 210.3515625 98.37109375 210.3515625 97.75 212.1328125 C96.43 212.4628125 95.11 212.7928125 93.75 213.1328125 C93.688125 213.9990625 93.62625 214.8653125 93.5625 215.7578125 C92.51877344 220.09329206 90.75721829 221.89426973 87.75 225.1328125 C96.88432131 222.88126637 105.56058987 219.78365916 114.20629883 216.08081055 C123.19853284 212.25128588 132.35767616 208.9682025 141.5625 205.6953125 C150.20316035 202.62169197 158.82545672 199.54771549 167.32421875 196.09765625 C175.37893413 192.88170203 183.57145177 190.01935893 191.75 187.1328125 C191.75 200.3328125 191.75 213.5328125 191.75 227.1328125 C187.98851562 228.08542969 184.22703125 229.03804687 180.3515625 230.01953125 C176.64766257 230.95906678 172.94394068 231.89930114 169.24023438 232.83959961 C166.69582268 233.48518461 164.15123088 234.13006023 161.60644531 234.77416992 C144.74312167 239.01690573 144.74312167 239.01690573 127.96875 243.59375 C115.00459053 247.27513124 101.87159662 250.34647426 88.78143311 253.543396 C83.10914705 254.92939825 77.4382012 256.32088079 71.76698303 257.71124458 C69.68672064 258.22093305 67.60625654 258.7297913 65.52575684 259.23851013 C58.3102371 261.00422508 51.10214022 262.79652825 43.90158081 264.62246704 C32.81800922 267.42864126 21.70862661 269.94320574 10.5 272.1953125 C8.83193643 272.5344391 7.16388653 272.87363298 5.49584961 273.21289062 C-8.71180477 276.08678823 -22.95990957 278.70136961 -37.25 281.1328125 C-40.05822697 277.67354329 -40.59795797 275.87563564 -40.4375 271.3828125 C-40.41042969 270.39796875 -40.38335937 269.413125 -40.35546875 268.3984375 C-40.32066406 267.65078125 -40.28585938 266.903125 -40.25 266.1328125 C-40.85328125 266.07222656 -41.4565625 266.01164062 -42.078125 265.94921875 C-42.87734375 265.86542969 -43.6765625 265.78164063 -44.5 265.6953125 C-45.28890625 265.61410156 -46.0778125 265.53289062 -46.890625 265.44921875 C-49.25 265.1328125 -49.25 265.1328125 -51.09033203 264.34082031 C-53.44618429 263.86995698 -53.44618429 263.86995698 -55.60009766 265.88354492 C-56.44620605 266.74310791 -57.29231445 267.6026709 -58.1640625 268.48828125 C-59.08960938 269.42091797 -60.01515625 270.35355469 -60.96875 271.31445312 C-61.44570312 271.80792236 -61.92265625 272.3013916 -62.4140625 272.80981445 C-63.86441012 274.30936337 -65.33238819 275.78960854 -66.8046875 277.26757812 C-72.33060584 282.62161296 -72.33060584 282.62161296 -76.25 289.1328125 C-75.5075 289.1740625 -74.765 289.2153125 -74 289.2578125 C-70.03092774 290.52069913 -69.21214334 292.52246875 -67.25 296.1328125 C-66.75390625 299.7890625 -66.75390625 299.7890625 -66.8125 303.6328125 C-66.81378906 304.90125 -66.81507813 306.1696875 -66.81640625 307.4765625 C-67.27526999 311.34589998 -68.24397335 313.81591694 -70.25 317.1328125 C-73.14282137 319.27564315 -76.67362815 319.76031489 -80.15234375 320.47265625 C-82.39221839 321.06150423 -82.39221839 321.06150423 -84.52734375 322.73046875 C-88.6889735 324.87397676 -92.37029982 323.95677951 -96.8984375 323.37109375 C-100.74399411 322.94571584 -100.74399411 322.94571584 -104.2734375 324.2890625 C-105.42458799 326.13640087 -105.42458799 326.13640087 -105.328125 328.515625 C-103.80268749 332.21867983 -101.24258696 333.8924768 -98 336.0078125 C-97.44570312 336.42289062 -96.89140625 336.83796875 -96.3203125 337.265625 C-92.05121089 340.08661725 -89.12527422 340.23691054 -84.06640625 339.63671875 C-76.6749503 338.79477526 -71.28485264 340.54057503 -64.4375 343.1953125 C-63.30965088 343.60998779 -62.18180176 344.02466309 -61.01977539 344.4519043 C-57.75461661 345.65731799 -54.50247244 346.89367654 -51.25 348.1328125 C-49.61060026 348.73511639 -47.97011564 349.33448316 -46.328125 349.9296875 C-38.85021028 352.65434418 -31.47464358 355.55773359 -24.33203125 359.078125 C-21.54583721 360.39696312 -19.60679347 361.15713933 -16.5 360.9453125 C-14.01653693 360.14987123 -14.01653693 360.14987123 -11.25 358.1328125 C-7.5625 358.5078125 -7.5625 358.5078125 -4.25 359.1328125 C-2.15769231 363.56358173 -2.15769231 363.56358173 -2.625 366.4453125 C-2.83125 367.0021875 -3.0375 367.5590625 -3.25 368.1328125 C-2.53755127 368.26187988 -1.82510254 368.39094727 -1.09106445 368.52392578 C1.76248795 369.13548887 4.44047524 369.94873313 7.20703125 370.875 C8.75293945 371.39126953 8.75293945 371.39126953 10.33007812 371.91796875 C11.39677734 372.27761719 12.46347656 372.63726562 13.5625 373.0078125 C14.61759766 373.35972656 15.67269531 373.71164062 16.75976562 374.07421875 C21.08076399 375.52262817 25.39352471 376.9718307 29.6484375 378.60546875 C35.5453761 380.84989954 41.5607035 382.7537641 47.5625 384.6953125 C48.22109009 384.90913574 48.87968018 385.12295898 49.55822754 385.34326172 C62.48356645 389.52824133 75.51811184 393.29075286 88.61254883 396.90844727 C89.33523453 397.11006973 90.05792023 397.3116922 90.80250549 397.51942444 C92.76330499 398.06606749 94.72583484 398.60649295 96.68847656 399.14648438 C99.75 400.1328125 99.75 400.1328125 102.75 402.1328125 C103.04296875 405.390625 103.04296875 405.390625 102.9375 409.2578125 C102.91042969 410.53914063 102.88335937 411.82046875 102.85546875 413.140625 C102.80326172 414.62175781 102.80326172 414.62175781 102.75 416.1328125 C101.76 416.4628125 100.77 416.7928125 99.75 417.1328125 C101.14051502 421.2878886 102.56666974 425.42983025 104 429.5703125 C104.59361328 431.34631836 104.59361328 431.34631836 105.19921875 433.15820312 C105.59238281 434.28291016 105.98554688 435.40761719 106.390625 436.56640625 C106.74672852 437.60853271 107.10283203 438.65065918 107.46972656 439.72436523 C107.8922168 440.51915283 108.31470703 441.31394043 108.75 442.1328125 C110.07 442.4628125 111.39 442.7928125 112.75 443.1328125 C112.75 448.0828125 112.75 453.0328125 112.75 458.1328125 C103.18 458.1328125 93.61 458.1328125 83.75 458.1328125 C83.75 453.8428125 83.75 449.5528125 83.75 445.1328125 C85.07 445.1328125 86.39 445.1328125 87.75 445.1328125 C87.09 443.4828125 86.43 441.8328125 85.75 440.1328125 C81.46 440.1328125 77.17 440.1328125 72.75 440.1328125 C72.09 441.7828125 71.43 443.4328125 70.75 445.1328125 C72.07 445.1328125 73.39 445.1328125 74.75 445.1328125 C74.75 449.4228125 74.75 453.7128125 74.75 458.1328125 C67.49 458.1328125 60.23 458.1328125 52.75 458.1328125 C52.75 453.1828125 52.75 448.2328125 52.75 443.1328125 C54.07 442.8028125 55.39 442.4728125 56.75 442.1328125 C58.14681497 439.56441321 58.14681497 439.56441321 59.109375 436.34765625 C59.50253906 435.17783203 59.89570313 434.00800781 60.30078125 432.80273438 C60.69652344 431.57103516 61.09226562 430.33933594 61.5 429.0703125 C61.91121094 427.83474609 62.32242188 426.59917969 62.74609375 425.32617188 C63.76213112 422.26624538 64.76262451 419.20208376 65.75 416.1328125 C64.76 416.1328125 63.77 416.1328125 62.75 416.1328125 C62.42 411.8428125 62.09 407.5528125 61.75 403.1328125 C48.63813738 397.98143615 35.4625661 393.01942781 22.25 388.1328125 C-14.72109437 374.45919947 -14.72109437 374.45919947 -31.375 366.8203125 C-33.86912586 365.68702988 -36.36565244 364.55913333 -38.86328125 363.43359375 C-39.48101913 363.15519653 -40.09875702 362.87679932 -40.73521423 362.58996582 C-46.96753484 359.79234748 -53.2539878 357.12887145 -59.5625 354.5078125 C-60.52752441 354.10651123 -61.49254883 353.70520996 -62.48681641 353.29174805 C-65.06957322 352.22587387 -67.65714693 351.17385863 -70.25 350.1328125 C-71.40725586 349.66597046 -71.40725586 349.66597046 -72.58789062 349.18969727 C-77.84754355 347.09675582 -77.84754355 347.09675582 -83.25 348.1328125 C-86.01223278 350.89504528 -85.82856291 353.33987867 -86.25 357.1328125 C-85.25987915 357.08568115 -85.25987915 357.08568115 -84.24975586 357.03759766 C-81.22935924 356.91208981 -78.20951202 356.83459683 -75.1875 356.7578125 C-74.14916016 356.70753906 -73.11082031 356.65726562 -72.04101562 356.60546875 C-66.92915739 356.50810002 -63.18639899 356.55215166 -59.05078125 359.77734375 C-56.87898041 362.00878592 -56.26122347 363.09317324 -55.390625 366.16796875 C-55.68255851 374.24827136 -55.68255851 374.24827136 -58.375 378.4453125 C-62.00587188 380.57647643 -63.23482198 380.13536622 -67.25 379.1328125 C-69.99609375 377.79296875 -69.99609375 377.79296875 -72.6875 376.1953125 C-75.84885281 374.38268901 -78.62317134 372.85385027 -82.1875 372.0703125 C-85.25 371.1328125 -85.25 371.1328125 -87.25 368.4453125 C-88.24 367.300625 -88.24 367.300625 -89.25 366.1328125 C-93.74244316 366.04112999 -97.21289007 367.47089908 -101.375 369.0703125 C-116.31892053 374.64883324 -132.5949004 374.62657149 -147.25 368.1328125 C-154.51817162 364.55641059 -160.68869853 360.9268231 -165.25 354.1328125 C-166.03310547 352.988125 -166.03310547 352.988125 -166.83203125 351.8203125 C-175.57321139 338.20874246 -176.87913328 322.71556886 -173.9296875 307.0390625 C-170.00940157 290.27646058 -158.59699277 279.32303335 -144.75 269.9453125 C-141.25 268.1328125 -141.25 268.1328125 -139.203125 268.1796875 C-135.43856223 270.01679413 -134.6655808 274.13969989 -133.23828125 277.8515625 C-131.87266117 282.38563707 -131.28361553 286.46337955 -132.25 291.1328125 C-134.25 294.1953125 -134.25 294.1953125 -136.25 296.1328125 C-136.25 296.4628125 -136.25 296.7928125 -136.25 297.1328125 C-135.13818359 297.26236328 -135.13818359 297.26236328 -134.00390625 297.39453125 C-124.41459743 298.67388824 -115.46143328 301.24251846 -106.25 304.1328125 C-100.7119435 297.65338654 -95.20143143 291.18066816 -90.01953125 284.41015625 C-86.52276607 279.90990438 -82.8747307 275.53016153 -79.25 271.1328125 C-79.48187012 270.58866699 -79.71374023 270.04452148 -79.95263672 269.48388672 C-81.01249447 266.99287672 -82.06877228 264.50036373 -83.125 262.0078125 C-83.48980469 261.151875 -83.85460937 260.2959375 -84.23046875 259.4140625 C-88.32467845 249.73683957 -90.63788562 243.18604611 -87.01171875 232.90234375 C-86.77544266 232.2074736 -86.53916656 231.51260345 -86.29573059 230.79667664 C-85.7847785 229.29609343 -85.26988684 227.79684702 -84.75146484 226.29882812 C-83.34987443 222.24623918 -81.97889961 218.18329471 -80.60546875 214.12109375 C-80.32263031 213.28663727 -80.03979187 212.45218079 -79.74838257 211.59243774 C-76.95172879 203.31261636 -74.33855721 194.97954284 -71.75 186.6328125 C-67.82081941 173.99089225 -63.71018753 161.4200367 -59.48974609 148.87255859 C-55.77918533 137.8315524 -52.20959662 126.7549043 -48.75 115.6328125 C-44.81897042 102.99513342 -40.71394713 90.42623441 -36.49276733 77.88262939 C-32.95712288 67.36807426 -29.54819356 56.82207749 -26.25393677 46.22943115 C-22.69484941 34.79391712 -19.10729293 23.36757556 -15.3125 12.0078125 C-14.95905518 10.91065918 -14.60561035 9.81350586 -14.24145508 8.68310547 C-13.90525146 7.69455566 -13.56904785 6.70600586 -13.22265625 5.6875 C-12.93656494 4.82624512 -12.65047363 3.96499023 -12.35571289 3.07763672 C-11.25 1.1328125 -11.25 1.1328125 -9.57983398 0.35644531 C-6.37608667 0.04892854 -3.21917324 0.00280555 0 0 Z M41.8359375 218.21875 C36.11782561 221.92352083 30.27932065 225.36051045 24.375 228.7578125 C16.20827503 233.49168163 8.09560808 238.30024536 0.0625 243.2578125 C-0.80358887 243.78971191 -1.66967773 244.32161133 -2.56201172 244.86962891 C-9.92827847 248.97445506 -9.92827847 248.97445506 -15.25 255.1328125 C-15.49787017 259.27784911 -15.49787017 259.27784911 -14.25 263.1328125 C-7.70246764 261.79954482 -1.53989323 259.99856923 4.75 257.7578125 C5.71333252 257.41838623 6.67666504 257.07895996 7.66918945 256.72924805 C11.03259749 255.53906257 14.39170337 254.3373451 17.75 253.1328125 C18.41126892 252.89592712 19.07253784 252.65904175 19.75384521 252.41497803 C24.09282352 250.86008777 28.42951517 249.29899018 32.76391602 247.73138428 C34.1933453 247.21443438 35.62302599 246.698179 37.05297852 246.18267822 C44.83050982 243.37539684 52.5287241 240.44883444 60.14379883 237.2199707 C63.55944468 235.79515844 67.00691257 234.5428931 70.5 233.3203125 C71.69109375 232.90136719 72.8821875 232.48242188 74.109375 232.05078125 C74.98078125 231.74785156 75.8521875 231.44492188 76.75 231.1328125 C76.75 230.8028125 76.75 230.4728125 76.75 230.1328125 C71.56420061 229.96278629 67.07333132 230.19825958 62 231.3203125 C57.13172319 232.27088259 57.13172319 232.27088259 53.8125 231.0703125 C50.57027653 228.02458743 48.16864547 225.3887489 46.75 221.1328125 C47.6875 217.9453125 47.6875 217.9453125 48.75 215.1328125 C45.80843475 215.1328125 44.27940767 216.60839099 41.8359375 218.21875 Z M79.75 419.1328125 C79.0791288 420.7560812 78.41342971 422.38148828 77.75 424.0078125 C77.37875 424.91273438 77.0075 425.81765625 76.625 426.75 C75.63509774 429.02265108 75.63509774 429.02265108 75.75 431.1328125 C78.39 431.1328125 81.03 431.1328125 83.75 431.1328125 C82.76 427.1728125 81.77 423.2128125 80.75 419.1328125 C80.42 419.1328125 80.09 419.1328125 79.75 419.1328125 Z " fill="#000000" transform="translate(237.25,0.8671875)"/>
<path style="fill:white" d="M0 0 C0.99245476 0.00212242 0.99245476 0.00212242 2.00495911 0.00428772 C4.11402953 0.00987629 6.22299302 0.0224266 8.33203125 0.03515625 C9.76367034 0.04017273 11.1953111 0.04473538 12.62695312 0.04882812 C16.13285005 0.05899015 19.63867557 0.07794669 23.14453125 0.09765625 C22.59533872 12.96691798 21.20863198 25.63231027 19.52734375 38.3984375 C19.26645924 40.41125156 19.00604226 42.42412628 18.74606323 44.4370575 C18.20327777 48.63030842 17.65668453 52.82303754 17.10693359 57.01538086 C16.41017979 62.32914366 15.72027265 67.64376508 15.03293037 72.95875263 C14.49589028 77.10911636 13.95654348 81.25917763 13.41640854 85.40913963 C13.16173645 87.36585933 12.90742201 89.32262562 12.65350723 91.27944374 C11.4144585 100.81123659 10.13221442 110.33147346 8.68115234 119.83349609 C7.0227799 130.7017829 5.57771729 141.59621721 4.14109802 152.49572182 C3.66324816 156.11845486 3.18264888 159.74081398 2.70129395 163.36308289 C1.33505123 173.64589771 -0.02848132 183.92906579 -1.38525391 194.21313477 C-2.22089332 200.54561994 -3.06139547 206.87744419 -3.90492249 213.20888329 C-4.22246029 215.59936845 -4.53820758 217.99009224 -4.85203552 220.38106728 C-9.4700562 255.55257142 -9.4700562 255.55257142 -13.85546875 261.09765625 C-13.81421875 261.92265625 -13.77296875 262.74765625 -13.73046875 263.59765625 C-13.85546875 266.09765625 -13.85546875 266.09765625 -16.04296875 268.34765625 C-20.76071064 271.28314009 -24.48744512 271.40151171 -29.85546875 270.16015625 C-38.74276308 267.32916375 -43.24687231 260.25420469 -48.52392578 252.94189453 C-51.59602554 248.35948402 -51.59602554 248.35948402 -55.85546875 245.09765625 C-55.91734375 245.84015625 -55.97921875 246.58265625 -56.04296875 247.34765625 C-57.12847419 251.02167467 -58.58952583 252.16778089 -61.85546875 254.09765625 C-65.48376725 254.00217471 -66.67164591 253.27970016 -69.27734375 250.69921875 C-70.045625 249.71695313 -70.81390625 248.7346875 -71.60546875 247.72265625 C-72.3840625 246.74554688 -73.16265625 245.7684375 -73.96484375 244.76171875 C-76.94447066 240.56315356 -77.4690997 237.18202697 -76.85546875 232.09765625 C-75.0347003 230.15257303 -72.98274538 228.72456163 -70.85546875 227.09765625 C-75.98625108 218.05719635 -81.17688345 209.40762306 -87.5703125 201.1875 C-91.16640664 196.32508895 -94.26013776 191.16781174 -97.42578125 186.01953125 C-102.96021227 176.80464155 -102.96021227 176.80464155 -109.43989563 168.28253174 C-111.20967611 165.5509526 -111.21873512 163.92365766 -111.19604492 160.68652344 C-111.19581833 159.60570496 -111.19559174 158.52488647 -111.19535828 157.41131592 C-111.17987442 156.25077698 -111.16439056 155.09023804 -111.1484375 153.89453125 C-111.14419266 152.70160461 -111.13994781 151.50867798 -111.13557434 150.27960205 C-111.11877898 146.46872406 -111.08112393 142.65837447 -111.04296875 138.84765625 C-111.02792308 136.26433055 -111.01423447 133.68099657 -111.00195312 131.09765625 C-110.96887256 124.76414257 -110.91866399 118.43093716 -110.85546875 112.09765625 C-104.60640672 114.18067693 -101.95238416 122.82286723 -99.13793945 128.40332031 C-97.75571875 131.17402399 -96.38694847 133.95122569 -95.02099609 136.72998047 C-88.9777035 149.00644707 -82.84123929 161.22690174 -76.42553711 173.31323242 C-73.39950909 179.02515587 -70.47456135 184.78094683 -67.63012695 190.58544922 C-65.58728648 194.72954518 -63.39206123 198.76819459 -61.1340332 202.79882812 C-59.06757291 206.51427401 -57.08404188 210.27235551 -55.10546875 214.03515625 C-54.68152832 214.84057861 -54.25758789 215.64600098 -53.82080078 216.47583008 C-49.37633158 224.95525769 -45.09981035 233.51670476 -40.85546875 242.09765625 C-43.33994787 231.08045158 -46.84195524 220.40336984 -50.29296875 209.66015625 C-51.15744496 206.95772949 -52.02085153 204.25496324 -52.88394165 201.55209351 C-53.4418334 199.8054767 -54.0003974 198.05907447 -54.55966187 196.31289673 C-56.40038792 190.55753904 -58.18891817 184.78970194 -59.91821289 178.99975586 C-60.86773333 176.05968046 -61.95737544 173.18771432 -63.0532074 170.29975891 C-64.52842513 166.25047887 -65.77350085 162.12916886 -67.04296875 158.01171875 C-67.49157761 156.56792091 -67.49157761 156.56792091 -67.94924927 155.09495544 C-68.58867533 153.036984 -69.2271698 150.9787229 -69.86480713 148.92019653 C-75.21339763 131.6566494 -80.62505073 114.41712168 -86.265625 97.24658203 C-88.48805854 90.45058617 -90.6269436 83.63594833 -92.66015625 76.78125 C-92.87987091 76.04528091 -93.09958557 75.30931183 -93.32595825 74.55104065 C-94.85546875 69.33921152 -94.85546875 69.33921152 -94.85546875 67.09765625 C-86.04491878 64.16080626 -76.02000802 64.97724624 -66.85546875 65.09765625 C-64.99555162 71.73136068 -63.29156858 78.35903398 -61.85546875 85.09765625 C-61.56414062 84.46859375 -61.2728125 83.83953125 -60.97265625 83.19140625 C-58.89006424 78.84284935 -56.82432451 74.86178248 -53.79296875 71.09765625 C-51.41938039 68.14412313 -50.25128448 65.57686536 -49.10546875 61.97265625 C-46.79057454 55.77746805 -42.65538284 53.77575866 -36.85546875 51.09765625 C-35.829375 50.60007813 -34.80328125 50.1025 -33.74609375 49.58984375 C-28.22047178 47.07444867 -24.9215082 45.65293384 -18.85546875 47.09765625 C-16.52891784 53.08176162 -14.42612753 58.67774499 -13.85546875 65.09765625 C-13.19546875 65.09765625 -12.53546875 65.09765625 -11.85546875 65.09765625 C-11.86054443 64.21207031 -11.86562012 63.32648438 -11.87084961 62.4140625 C-11.89971266 53.35695401 -11.75813187 44.316465 -11.4831543 35.26367188 C-11.41801063 33.09904793 -11.3582278 30.93431956 -11.29882812 28.76953125 C-11.03243145 19.52607658 -10.53926068 10.32003769 -9.85546875 1.09765625 C-6.37764292 -0.06161903 -3.66743618 -0.01547441 0 0 Z M-39.85546875 244.09765625 C-38.85546875 246.09765625 -38.85546875 246.09765625 -38.85546875 246.09765625 Z M-37.85546875 248.09765625 C-36.85546875 250.09765625 -36.85546875 250.09765625 -36.85546875 250.09765625 Z " fill="#000000" transform="translate(140.85546875,0.90234375)"/>
<path style="fill:white" d="M0 0 C6.58084465 3.3575738 10.01501894 9.02252842 14 15 C16.04772153 15.6558798 16.04772153 15.6558798 18.47900391 15.87207031 C19.42141434 15.98966705 20.36382477 16.10726379 21.33479309 16.22842407 C22.371577 16.34382538 23.4083609 16.45922668 24.4765625 16.578125 C25.56454636 16.71020355 26.65253021 16.8422821 27.77348328 16.97836304 C31.38929657 17.41457254 35.00704091 17.83199502 38.625 18.25 C41.15276252 18.55241757 43.68034875 18.85631207 46.20776367 19.16162109 C50.81392034 19.71687577 55.42045544 20.2685674 60.02779675 20.81387901 C73.12926215 22.3645604 86.22129418 23.99026197 99.3125 25.625 C100.47916199 25.77024109 101.64582397 25.91548218 102.84783936 26.06512451 C117.49793105 27.8908633 132.13535526 29.78311262 146.75 31.875 C147.83880966 32.03032196 147.83880966 32.03032196 148.94961548 32.18878174 C162.35534322 34.11051735 162.35534322 34.11051735 165 35 C166.24084307 37.48168614 166.12933103 39.16426199 166.1328125 41.9375 C166.13410156 42.91460937 166.13539063 43.89171875 166.13671875 44.8984375 C166.13285156 45.92195313 166.12898437 46.94546875 166.125 48 C166.12886719 49.02351563 166.13273438 50.04703125 166.13671875 51.1015625 C166.13478516 52.56722656 166.13478516 52.56722656 166.1328125 54.0625 C166.13168457 54.96097656 166.13055664 55.85945313 166.12939453 56.78515625 C166 59 166 59 165 61 C157.7857204 60.32012025 150.78493748 59.07117283 143.6875 57.625 C142.63626953 57.41617188 141.58503906 57.20734375 140.50195312 56.9921875 C135.33089087 55.94971152 130.2058337 54.82150181 125.09765625 53.50390625 C118.37124757 51.78849818 111.57977507 50.53978314 104.75 49.3125 C103.51636719 49.08755859 102.28273438 48.86261719 101.01171875 48.63085938 C98.00842787 48.08374825 95.00454218 47.54018924 92 47 C92.46792969 47.99580078 92.46792969 47.99580078 92.9453125 49.01171875 C93.33460938 49.89472656 93.72390625 50.77773438 94.125 51.6875 C94.51945313 52.55761719 94.91390625 53.42773438 95.3203125 54.32421875 C96.16939234 57.66686066 95.68730781 59.03458178 94 62 C90.7911669 64.13922206 88.94716153 64.49973305 85.1875 65.0625 C84.17042969 65.21847656 83.15335938 65.37445313 82.10546875 65.53515625 C81.08066406 65.68855469 80.05585938 65.84195313 79 66 C77.54980469 66.36158203 77.54980469 66.36158203 76.0703125 66.73046875 C72.08932197 67.07994502 69.25322257 65.81014241 65.6875 64.25 C59.90564422 61.87312736 54.49916475 60.41493793 48.3125 59.5625 C37.71129403 58.00677 27.75558604 53.63213772 21 45 C19.90593082 42.1280684 19.72190493 40.8342852 20.6875 37.9375 C22.22642319 35.66575625 23.99758151 33.86892393 26 32 C25.16001465 31.86730713 24.3200293 31.73461426 23.45458984 31.59790039 C19.85122524 30.97425093 16.29753343 30.22175642 12.7265625 29.43359375 C11.26680694 29.1134124 9.80700663 28.79343506 8.34716797 28.47363281 C7.57902771 28.30496704 6.81088745 28.13630127 6.01947021 27.96252441 C-10.27900731 24.3888326 -26.61225782 21.0217983 -42.98193359 17.79077148 C-46.86345788 17.02463977 -50.7438799 16.25320251 -54.62316895 15.47583008 C-56.26080634 15.14798299 -57.89876603 14.82174308 -59.5369873 14.49682617 C-62.08601184 13.98921361 -64.6329843 13.47224471 -67.1796875 12.953125 C-67.94604523 12.80196228 -68.71240295 12.65079956 -69.50198364 12.49505615 C-74.56636868 11.45006072 -79.19640592 9.91926129 -84 8 C-84 7.34 -84 6.68 -84 6 C-76.90621156 5.84498485 -70.09965899 6.4563097 -63.0625 7.3125 C-51.82587358 8.62525309 -40.58261959 9.71164016 -29.3125 10.6875 C-28.54632355 10.75393707 -27.78014709 10.82037415 -26.99075317 10.88882446 C-22.66085756 11.26344132 -18.33060419 11.63365185 -14 12 C-13.88100342 11.3807666 -13.76200684 10.7615332 -13.6394043 10.12353516 C-13.47351807 9.31190918 -13.30763184 8.5002832 -13.13671875 7.6640625 C-12.97647217 6.8592041 -12.81622559 6.0543457 -12.65112305 5.22509766 C-12 3 -12 3 -9.8125 0.375 C-6.00066486 -1.48856385 -4.05820931 -1.13914647 0 0 Z " fill="#000000" transform="translate(264,326)"/>
<path style="fill:white" d="M0 0 C1.87304561 0.00505215 3.74609261 0.00960816 5.61914062 0.01367188 C10.05866132 0.02344625 14.49797103 0.04305681 18.9375 0.0625 C18.9375 9.6325 18.9375 19.2025 18.9375 29.0625 C-5.42626848 27.50421612 -29.7865488 25.89621431 -54.14547157 24.26399231 C-59.98758622 23.87253639 -65.82976619 23.48212283 -71.67211914 23.09423828 C-77.43336004 22.71172271 -83.19441961 22.32657435 -88.95536613 21.93965149 C-91.11137907 21.79526444 -93.26745026 21.65174415 -95.42358589 21.50920105 C-108.05999984 20.67302286 -120.66890961 19.6820353 -133.27799988 18.50311279 C-138.71950767 17.9959388 -144.16434072 17.57554073 -149.6171875 17.2109375 C-150.54048859 17.14717926 -151.46378967 17.08342102 -152.41506958 17.01773071 C-155.25573105 16.82207021 -158.09660187 16.62968988 -160.9375 16.4375 C-162.90886942 16.30230553 -164.88022366 16.16688959 -166.8515625 16.03125 C-171.58837191 15.70579862 -176.32537204 15.38327987 -181.0625 15.0625 C-180.5675 16.0525 -180.5675 16.0525 -180.0625 17.0625 C-179.65045166 21.69804388 -180.18795854 24.36666098 -183.0625 28.0625 C-185.89673931 30.28940231 -187.13107668 30.05564233 -190.8125 29.6875 C-192.42125 29.378125 -192.42125 29.378125 -194.0625 29.0625 C-194.3925 27.0825 -194.7225 25.1025 -195.0625 23.0625 C-196.114375 23.536875 -197.16625 24.01125 -198.25 24.5 C-205.69035568 27.62255891 -205.69035568 27.62255891 -210.125 25.8125 C-211.094375 25.235 -212.06375 24.6575 -213.0625 24.0625 C-213.84625 23.69125 -214.63 23.32 -215.4375 22.9375 C-217.86363972 20.13810801 -217.36331628 17.51292175 -217.203125 13.92578125 C-217.15671875 13.31089844 -217.1103125 12.69601562 -217.0625 12.0625 C-219.3725 11.7325 -221.6825 11.4025 -224.0625 11.0625 C-223.7325 10.4025 -223.4025 9.7425 -223.0625 9.0625 C-220.79244614 8.67522526 -220.79244614 8.67522526 -217.7411499 8.48146057 C-216.60088474 8.40523185 -215.46061958 8.32900312 -214.28580093 8.25046444 C-212.40747889 8.14110734 -212.40747889 8.14110734 -210.49121094 8.02954102 C-209.18897457 7.94726792 -207.8867382 7.86499483 -206.54504013 7.78022861 C-192.48663811 6.90545247 -178.41507457 6.27837011 -164.34260273 5.68106914 C-160.65584567 5.52386917 -156.96926382 5.36264641 -153.28265381 5.20204163 C-147.09772311 4.93317877 -140.91267541 4.66716351 -134.72753906 4.40307617 C-127.67866215 4.10208531 -120.62997156 3.79700935 -113.58137155 3.4896068 C-106.67612022 3.18851525 -99.77076185 2.88995051 -92.86534882 2.59259224 C-89.98428073 2.46851658 -87.10324526 2.34372348 -84.22223663 2.21827507 C-68.92199827 1.55315326 -53.62122488 0.95471193 -38.3137207 0.48486328 C-37.63148359 0.46359214 -36.94924647 0.44232099 -36.24633551 0.42040527 C-24.16148757 0.04711305 -12.0895625 -0.05951025 0 0 Z " fill="#000000" transform="translate(410.0625,291.9375)"/>
<path style="fill:white" d="M0 0 C11.22 0 22.44 0 34 0 C36.475 6.435 36.475 6.435 39 13 C39.99 14.32 40.98 15.64 42 17 C44.31 11.39 46.62 5.78 49 0 C60.22 0 71.44 0 83 0 C83 4.62 83 9.24 83 14 C81.68 14 80.36 14 79 14 C79 22.91 79 31.82 79 41 C80.32 41 81.64 41 83 41 C83 45.95 83 50.9 83 56 C73.43 56 63.86 56 54 56 C54 51.05 54 46.1 54 41 C55.32 41 56.64 41 58 41 C57.67 33.41 57.34 25.82 57 18 C52.38 30.54 47.76 43.08 43 56 C39.7 56 36.4 56 33 56 C31.32580674 51.69569574 29.65350693 47.39066235 27.98291016 43.08496094 C27.41506296 41.6221969 26.84671095 40.15962873 26.27783203 38.69726562 C25.45730939 36.58776083 24.63864203 34.47754387 23.8203125 32.3671875 C23.56814972 31.72006805 23.31598694 31.07294861 23.05618286 30.40621948 C21.59319824 26.62722606 20.28347588 22.85042765 19 19 C18.67 26.26 18.34 33.52 18 41 C19.32 41 20.64 41 22 41 C22 45.95 22 50.9 22 56 C14.74 56 7.48 56 0 56 C0 51.05 0 46.1 0 41 C1.32 41 2.64 41 4 41 C4 32.09 4 23.18 4 14 C2.68 14 1.36 14 0 14 C0 9.38 0 4.76 0 0 Z " fill="#000000" transform="translate(203,403)"/>
<path style="fill:white" d="M0 0 C12.54 0 25.08 0 38 0 C38 3.96 38 7.92 38 12 C37.01 12.33 36.02 12.66 35 13 C37.31 14.65 39.62 16.3 42 18 C44.475 15.525 44.475 15.525 47 13 C46.01 12.67 45.02 12.34 44 12 C44 8.04 44 4.08 44 0 C54.56 0 65.12 0 76 0 C76 4.62 76 9.24 76 14 C74.700625 14.020625 73.40125 14.04125 72.0625 14.0625 C66.02632242 14.70140031 62.34763694 18.00157084 58 22 C57.41992188 22.52851563 56.83984375 23.05703125 56.2421875 23.6015625 C54.77863182 24.93746827 54.77863182 24.93746827 55 27 C57.25689896 28.90923045 59.52143781 30.71755662 61.875 32.5 C63.16489701 33.48849533 64.45399374 34.47803604 65.7421875 35.46875 C66.3182373 35.90638672 66.89428711 36.34402344 67.48779297 36.79492188 C69 38 69 38 71 40 C73.31 40.33 75.62 40.66 78 41 C78 45.95 78 50.9 78 56 C65.46 56 52.92 56 40 56 C40 51.71 40 47.42 40 43 C40.99 42.67 41.98 42.34 43 42 C40.77122275 39.35426499 40.77122275 39.35426499 38 37 C34.92175717 36.90671991 34.02144226 37.9803446 31.75 40.0625 C31.1725 40.701875 30.595 41.34125 30 42 C31.485 42.495 31.485 42.495 33 43 C33 47.29 33 51.58 33 56 C22.11 56 11.22 56 0 56 C0 51.05 0 46.1 0 41 C1.1653125 40.94972656 2.330625 40.89945312 3.53125 40.84765625 C8.66429849 40.20602519 11.66410577 37.73422884 15.5 34.4375 C16.13164062 33.91736328 16.76328125 33.39722656 17.4140625 32.86132812 C18.95496424 31.58891684 20.47927623 30.29645973 22 29 C20.70022029 25.10066087 18.76893194 23.96845473 15.5625 21.4375 C10.10126582 17.10126582 10.10126582 17.10126582 8 15 C5.34462628 14.43479997 2.70855287 14.26211802 0 14 C0 9.38 0 4.76 0 0 Z " fill="#000000" transform="translate(352,403)"/>
<path style="fill:white" d="M0 0 C0 7.92 0 15.84 0 24 C-31.39543757 25.50214194 -62.78846048 26.60188429 -94.2074585 27.46972656 C-103.18246264 27.71790292 -112.15733781 27.97052263 -121.13212395 28.22645378 C-124.2003012 28.31312641 -127.26854445 28.39702583 -130.33680725 28.48060608 C-140.4010339 28.76143169 -150.45349595 29.125549 -160.50721836 29.67060184 C-166.25871925 29.98102865 -171.98945072 30.12784655 -177.75 30.0625 C-178.56597656 30.05798828 -179.38195312 30.05347656 -180.22265625 30.04882812 C-182.14847296 30.03749979 -184.07424977 30.01960605 -186 30 C-185.67 29.34 -185.34 28.68 -185 28 C-174.71863015 24.95466877 -163.71214536 23.74620844 -153.12890625 22.109375 C-151.41509307 21.8414254 -149.70132875 21.57316318 -147.98760986 21.30461121 C-143.44789647 20.5943304 -138.9074032 19.88916399 -134.36670303 19.18522263 C-130.60632016 18.60159737 -126.84642317 18.0148735 -123.08650494 17.42826366 C-100.49583634 13.90475546 -77.89653144 10.44804753 -55.27563477 7.12353516 C-43.9208902 5.45275346 -32.5915317 3.67977968 -21.28125 1.7265625 C-20.1675 1.53755371 -20.1675 1.53755371 -19.03125 1.34472656 C-17.19720393 1.03346778 -15.36416183 0.71630734 -13.53125 0.3984375 C-9.04733056 -0.10749146 -4.51237162 0 0 0 Z " fill="#000000" transform="translate(429,259)"/>
<path style="fill:white" d="M0 0 C13.2 0 26.4 0 40 0 C40 4.62 40 9.24 40 14 C39.01 14.33 38.02 14.66 37 15 C38.39051502 19.1550761 39.81666974 23.29701775 41.25 27.4375 C41.64574219 28.62150391 42.04148438 29.80550781 42.44921875 31.02539062 C43.03896484 32.71245117 43.03896484 32.71245117 43.640625 34.43359375 C43.99672852 35.47572021 44.35283203 36.51784668 44.71972656 37.59155273 C45.1422168 38.38634033 45.56470703 39.18112793 46 40 C47.32 40.33 48.64 40.66 50 41 C50 45.95 50 50.9 50 56 C40.43 56 30.86 56 21 56 C21 51.71 21 47.42 21 43 C22.32 43 23.64 43 25 43 C24.505 40.03 24.505 40.03 24 37 C19.38 37.33 14.76 37.66 10 38 C9.01 40.475 9.01 40.475 8 43 C9.32 43 10.64 43 12 43 C12 47.29 12 51.58 12 56 C4.74 56 -2.52 56 -10 56 C-10 51.05 -10 46.1 -10 41 C-8.02 40.505 -8.02 40.505 -6 40 C-4.60318503 37.43160071 -4.60318503 37.43160071 -3.640625 34.21484375 C-3.24746094 33.04501953 -2.85429688 31.87519531 -2.44921875 30.66992188 C-1.85560547 28.82237305 -1.85560547 28.82237305 -1.25 26.9375 C-0.83878906 25.70193359 -0.42757812 24.46636719 -0.00390625 23.19335938 C1.01213112 20.13343288 2.01262451 17.06927126 3 14 C2.01 14 1.02 14 0 14 C0 9.38 0 4.76 0 0 Z M17 17 C16.3291288 18.6232687 15.66342971 20.24867578 15 21.875 C14.62875 22.77992188 14.2575 23.68484375 13.875 24.6171875 C12.88509774 26.88983858 12.88509774 26.88983858 13 29 C15.64 29 18.28 29 21 29 C20.01 25.04 19.02 21.08 18 17 C17.67 17 17.34 17 17 17 Z " fill="#000000" transform="translate(92,403)"/>
<path style="fill:white" d="M0 0 C18.48 0 36.96 0 56 0 C56 7.92 56 15.84 56 24 C52.37 24 48.74 24 45 24 C45 20.7 45 17.4 45 14 C43.02 14 41.04 14 39 14 C39 22.91 39 31.82 39 41 C40.65 41 42.3 41 44 41 C44 45.95 44 50.9 44 56 C33.44 56 22.88 56 12 56 C12 51.05 12 46.1 12 41 C13.65 41 15.3 41 17 41 C17 32.09 17 23.18 17 14 C15.35 14 13.7 14 12 14 C12 17.3 12 20.6 12 24 C8.04 24 4.08 24 0 24 C0 16.08 0 8.16 0 0 Z " fill="#000000" transform="translate(141,403)"/>
<path style="fill:white" d="M0 0 C18.15 0 36.3 0 55 0 C55 6.27 55 12.54 55 19 C50.05 19 45.1 19 40 19 C40 17.35 40 15.7 40 14 C36.04 14 32.08 14 28 14 C28 16.31 28 18.62 28 21 C31.3 21 34.6 21 38 21 C38 25.29 38 29.58 38 34 C34.7 34 31.4 34 28 34 C28 36.64 28 39.28 28 42 C30.31 42 32.62 42 35 42 C35 46.62 35 51.24 35 56 C23.45 56 11.9 56 0 56 C0 51.05 0 46.1 0 41 C1.98 41 3.96 41 6 41 C6 32.09 6 23.18 6 14 C4.02 14 2.04 14 0 14 C0 9.38 0 4.76 0 0 Z " fill="#000000" transform="translate(30,403)"/>
<path style="fill:white" d="M0 0 C1.6671897 1.6671897 1.21135497 3.62885467 1.25 5.91796875 C1.1889671 11.82576305 -0.03357818 16.77413692 -2 22.3125 C-2.31686768 23.21967773 -2.63373535 24.12685547 -2.96020508 25.06152344 C-7.5479127 37.74036076 -13.14782775 49.95091093 -26 56 C-29.93990193 56.03477845 -31.43143479 55.53864072 -34.30078125 52.8203125 C-34.96464844 51.93085937 -35.62851563 51.04140625 -36.3125 50.125 C-36.98925781 49.24070313 -37.66601562 48.35640625 -38.36328125 47.4453125 C-41.64280043 42.54560127 -41.66692365 37.70674444 -41 32 C-38.1569417 22.08605962 -33.81704216 9.96116853 -25 4 C-16.94875633 0.4206471 -8.78469891 -2.45971569 0 0 Z " fill="#000000" transform="translate(211,22)"/>
<path style="fill:white" d="M0 0 C1.8203125 0.05078125 1.8203125 0.05078125 4.125 0.3125 C5.24261719 0.43044922 5.24261719 0.43044922 6.3828125 0.55078125 C9 1 9 1 12.1796875 1.98828125 C16.80035649 3.21195535 21.24737437 3.53435038 26 3.875 C49.0221367 5.81808611 49.0221367 5.81808611 53.82421875 10.94921875 C56.20823312 15.10738335 57.51933239 19.19617538 57 24 C55 27 55 27 53.06396484 27.50830078 C52.28746582 27.57001465 51.5109668 27.63172852 50.7109375 27.6953125 C49.85113281 27.77136719 48.99132812 27.84742188 48.10546875 27.92578125 C47.20441406 27.99152344 46.30335938 28.05726563 45.375 28.125 C43.61190649 28.2725717 41.84888436 28.42099902 40.0859375 28.5703125 C39.22154053 28.63605469 38.35714355 28.70179688 37.46655273 28.76953125 C35.2556635 28.97611142 33.1195595 29.31651699 30.93359375 29.6953125 C26.0665195 30.07230534 22.31757047 29.13863754 17.6875 27.75 C16.89021484 27.53214844 16.09292969 27.31429688 15.27148438 27.08984375 C11.34408925 25.9601809 8.70856829 25.19803803 6 22 C5.19140625 19.94921875 5.19140625 19.94921875 4.5625 17.6875 C3.59066911 14.49286442 2.75029614 12.6361458 0.8125 9.8125 C-1.28255871 6.56154684 -1.44129201 4.79511125 -1 1 C-0.67 0.67 -0.34 0.34 0 0 Z " fill="#000000" transform="translate(273,313)"/>
<path style="fill:white" d="M0 0 C1.8125 1.32421875 1.8125 1.32421875 2.5625 4.44921875 C3.05192924 12.03537195 2.85402049 17.29969578 0.0625 24.32421875 C-2.4228983 30.87557105 -4.348618 37.35890531 -5.71777344 44.234375 C-6.37862965 47.25098925 -6.93486149 49.06904371 -9.1328125 51.2890625 C-11.84206939 52.6539923 -13.34636565 52.19234313 -16.1875 51.32421875 C-16.47367188 50.17566406 -16.75984375 49.02710938 -17.0546875 47.84375 C-17.77341853 44.96185406 -18.50942891 42.08525423 -19.2578125 39.2109375 C-24.19448952 19.83994516 -24.19448952 19.83994516 -20.6875 11.94921875 C-18.07962521 9.21095022 -15.6079492 7.42992296 -12.34375 5.56640625 C-10.14985166 4.34207131 -10.14985166 4.34207131 -8.03125 2.83203125 C-6.99484375 2.11660156 -6.99484375 2.11660156 -5.9375 1.38671875 C-5.00164062 0.72349609 -5.00164062 0.72349609 -4.046875 0.046875 C-2.1875 -0.67578125 -2.1875 -0.67578125 0 0 Z " fill="#000000" transform="translate(168.1875,141.67578125)"/>
<path style="fill:white" d="M0 0 C1.03380704 6.94006532 1.28649973 13.80086469 1.375 20.8125 C1.41238281 21.92431641 1.44976562 23.03613281 1.48828125 24.18164062 C1.57351011 32.27364745 -0.16267034 37.92339538 -4 45 C-4.556875 46.19625 -5.11375 47.3925 -5.6875 48.625 C-7 51 -7 51 -9 52 C-10.9375 51.5 -10.9375 51.5 -13 50 C-15.72938634 44.76867618 -17.33744139 39.08535751 -19.1328125 33.4765625 C-19.76865423 31.08678276 -19.76865423 31.08678276 -21 30 C-20.67067875 24.40153873 -19.07491405 21.56844372 -16 17 C-15.36669772 15.1765262 -14.76496613 13.34191784 -14.1875 11.5 C-11.95351218 5.05309813 -7.71442593 -1.4026229 0 0 Z " fill="#000000" transform="translate(182,82)"/>
<path style="fill:white" d="M0 0 C2.96786096 7.13667031 5.49063471 14.16275612 5 22 C2.49269031 27.12858801 -3.04280828 30.35616441 -8 33 C-11 33.8125 -11 33.8125 -14 33 C-18.37237781 30.18918569 -22.10419402 27.34370897 -25 23 C-25.75986201 19.22991544 -25.73742078 15.64397476 -24.1484375 12.1015625 C-19.33710817 5.57822642 -8.22905531 -0.76223764 0 0 Z " fill="#000000" transform="translate(387,86)"/>
<path style="fill:white" d="M0 0 C1.80078125 1.39453125 1.80078125 1.39453125 3 3 C2.82281881 7.7838921 1.88897032 11.18243207 -1 15 C-3.74775537 17.46593431 -6.47173437 19.82391146 -10 21 C-13.11794285 20.72887454 -15.79039203 20.07145726 -18.75 19.0625 C-23.09521889 17.64194767 -27.51073215 16.83397466 -32 16 C-32.60637975 11.14896201 -32.18289173 8.72930033 -29.25 4.75 C-21.51672804 -5.01423227 -10.87555954 -4.69406922 0 0 Z " fill="#000000" transform="translate(140,276)"/>
<path style="fill:white" d="M0 0 C4.28525002 0.771345 5.99670676 2.58317311 9.125 5.5625 C8.40262898 10.43850436 5.54266673 13.41304049 1.8125 16.4375 C-1.74042657 17.92477159 -4.1694143 17.36174397 -7.875 16.5625 C-9.0625 14.5 -9.0625 14.5 -9.875 11.5625 C-8.11103313 5.97660491 -6.10026184 1.19352949 0 0 Z " fill="#000000" transform="translate(73.875,261.4375)"/>
</svg>
