<svg xmlns="http://www.w3.org/2000/svg" viewBox="0 0 460 460">
  <path d="m237.25.867 2.106-.003c1.466 0 2.932.001 4.398.006 2.238.005 4.476 0 6.715-.007a17089199436.546 17089199436.546 0 0 1 8.203.007c2.666.104 4.806.328 7.328 1.13-1.517 3.842-3.118 7.643-4.75 11.438l-.784 1.825-3.298 7.672c-.807 1.875-1.612 3.751-2.418 5.628l-1.453 3.378A347.68 347.68 0 0 0 250 40c8.192-.029 13.678-1.341 20.527-5.918C273 33 273 33 275.68 33.687c4.226 2.39 6.246 5.553 7.57 10.126L284 47c4.507-4.096 7.517-8.638 10.688-13.813l1.57-2.524c1.066-1.714 2.129-3.43 3.189-5.147 1.912-3.097 3.838-6.185 5.767-9.27a229783815.861 229783815.861 0 0 1 3.63-5.827l.974-1.57L311 7l1.7-3.177C315 1 315 1 318.208.319l3.745.095 2 .026c2.101.033 4.198.109 6.297.185 1.427.03 2.854.057 4.281.082 3.491.066 6.98.17 10.469.293l1 2c-6.109 8.37-12.253 16.71-18.495 24.98a566.665 566.665 0 0 0-7.638 10.364l-1.523 2.113a581.263 581.263 0 0 0-2.867 4.023c-1.111 1.543-2.288 3.037-3.477 4.52h-2l-.766 1.648c-5.93 11.3-14.784 21.292-22.623 31.288-4.474 5.73-8.845 11.54-13.029 17.486-4.033 5.73-8.1 11.3-12.644 16.64-4.234 4.98-7.927 10.175-11.59 15.583-2.897 4.21-6.074 8.189-9.255 12.186a442.987 442.987 0 0 0-8.78 11.419 307.14 307.14 0 0 1-8.25 10.625c-3.592 4.445-6.901 9.05-10.194 13.718-3.428 4.84-7 9.555-10.646 14.232-1.83 2.35-3.57 4.695-5.223 7.175l-2-1c6.473-12.719 13.85-24.86 21.231-37.066 6.062-10.054 11.944-20.215 17.832-30.371.477-.825.955-1.649 1.448-2.498.44-.763.882-1.525 1.337-2.311l1.187-2.053A80.442 80.442 0 0 0 240 122h2l.83-2.188c1.138-2.734 2.434-5.229 3.893-7.804l1.62-2.867 1.72-3.016 1.752-3.093c3.772-6.63 7.617-13.21 11.644-19.69 1.945-2.95 1.945-2.95 2.541-6.342l-2.5 1.438c-4.206 1.877-6.887 2.489-11.5 2.562-2.625-1.688-2.625-1.688-5-4a744.352 744.352 0 0 0-6-4c-1.968-1.968-1.662-5.348-2-8-5.05 10.615-9.832 21.34-14.588 32.09-2.64 5.958-5.31 11.895-8.1 17.785C211.94 124.131 207.99 133.574 204 143l1.432-1.076 1.892-1.393 1.87-1.388C211 138 211 138 213.813 137.5 216 138 216 138 218 141c2 11.098-4.023 21.12-10 30-3.276-.596-3.873-.847-6.125-3.563-2.117-3.88-2.983-7.127-3.875-11.437-4.556 8.825-8.606 17.807-12.5 26.938a4608.996 4608.996 0 0 1-4.09 9.536c-2.274 5.264-4.67 10.468-7.089 15.666-1.632 3.532-3.177 7.09-4.696 10.673l-1.523 3.582L167 225c2.646.027 5.292.047 7.938.063l2.287.025c1.925.009 3.85-.036 5.775-.088l1-1c2.333-.04 4.667-.042 7 0 .859 3.434.976 5.617 0 9 7.038-5.274 12.19-11.974 17.621-18.797 3.132-3.928 6.39-7.73 9.691-11.516 4.212-4.852 8.094-9.836 11.813-15.082 3.621-5.032 7.361-10.137 11.793-14.488 2.625-2.67 4.868-5.59 7.144-8.554 3.757-4.838 7.588-9.59 11.563-14.25l1.387-1.627c.45-.53.902-1.059 1.367-1.604A466.976 466.976 0 0 0 280 126.438c3.68-4.845 7.596-9.373 11.719-13.844 2.577-2.93 4.933-5.98 7.281-9.094 3.015-3.998 6.1-7.814 9.5-11.5 3.375-3.666 6.488-7.472 9.5-11.438 3.29-4.328 6.598-8.633 10-12.874l2.188-2.739L332 63h2l.754-1.691c1.462-2.71 3.214-4.879 5.183-7.246l2.446-2.946L345 48l1.304-1.554C353.474 37.911 360.738 29.456 368 21l6.438-7.5 1.466-1.707 1.405-1.637 1.212-1.412c1.678-1.902 1.678-1.902 3.515-4.905 1.664-1.983 2.572-2.743 5.108-3.363 2.676-.17 5.29-.15 7.97-.062l2.937.026c3.089.033 6.174.109 9.262.185 2.096.03 4.193.057 6.29.082C418.738.773 423.869.877 429 1c1.91 25.201 1.91 25.201-2.203 30.96-2.789 2.66-5.635 4.845-8.797 7.04-2.039 2.103-2.039 2.103-3.75 4.25-3.233 3.782-6.699 7.269-10.25 10.75a52151.309 52151.309 0 0 1-9.25 9.25l-2.344 2.344-7.156 7.156-2.265 2.265a8869.06 8869.06 0 0 1-4.497 4.493c-2.215 2.22-4.425 4.445-6.633 6.672l-4.668 4.695c-.768.777-1.537 1.555-2.33 2.355-4.175 4.193-8.431 8.193-12.917 12.05-3.363 2.981-6.484 6.199-9.627 9.407-3.954 4.034-7.865 7.818-12.313 11.313a561.45 561.45 0 0 0-3.574 4.379c-2.161 2.457-4.625 4.507-7.11 6.629-2.708 2.33-5.358 4.717-8.003 7.117l-2.7 2.445c-3.083 2.867-6.043 5.84-9 8.836-10.305 10.427-10.305 10.427-14.488 13.969-4.591 3.9-8.75 8.224-12.983 12.502-3.616 3.64-7.302 7.104-11.22 10.42-2.412 2.137-4.657 4.41-6.922 6.703-4.172 4.216-8.486 8.158-13 12-4.487 3.869-8.858 7.757-13 12-8.348 8.51-8.348 8.51-12.688 12.188-4.127 3.538-7.964 7.35-11.812 11.187l-1.928 1.915-1.79 1.796-1.624 1.626c-1.27 1.123-1.27 1.123-1.158 2.288 5.36.538 8.205-1.01 12.313-4.188l1.812-1.348A575.766 575.766 0 0 0 217 244l4.129-3.137c2.846-2.168 5.687-4.343 8.523-6.523 4.42-3.396 8.844-6.785 13.286-10.153l2.062-1.581c4.77-3.606 4.77-3.606 7-3.606v-2c1.446-1.262 1.446-1.262 3.48-2.688l2.259-1.601 2.449-1.711c1.67-1.186 3.34-2.373 5.007-3.563l2.497-1.777c4.613-3.318 9.082-6.818 13.565-10.307C310.057 173 310.057 173 313 173v-2c1.554-1.37 1.554-1.37 3.734-2.941l2.412-1.755 2.604-1.867c1.758-1.276 3.516-2.554 5.273-3.832l2.601-1.88c7.512-5.452 14.879-11.097 22.223-16.771 5.19-4 10.432-7.928 15.685-11.844A394.453 394.453 0 0 0 378 122a973.69 973.69 0 0 1 7.563-5.688l2.154-1.613a3760.88 3760.88 0 0 1 9.365-6.992c4.546-3.39 9.052-6.803 13.484-10.34l2.436-1.932a621.695 621.695 0 0 0 4.769-3.827l2.225-1.764 1.974-1.588c2.334-1.444 4.33-1.87 7.03-2.256.248 5.853.429 11.703.55 17.56.05 1.99.118 3.979.204 5.968.702 16.488.702 16.488-2.772 21.222-2.593 1.835-5.043 3.06-7.982 4.25a114.468 114.468 0 0 0-3.73 2.3l-3.457 2.012a259.79 259.79 0 0 0-14.688 9.313c-7.692 5.228-15.671 9.951-23.662 14.706a786.048 786.048 0 0 0-21.185 13.09c-7.923 5.043-16 9.829-24.092 14.593l-3.092 1.834-2.76 1.625c-2.078 1.36-3.673 2.696-5.334 4.527l2.5-.75c4.76-.34 7.666.984 11.5 3.75 2.086 2.125 3.885 4.222 5 7-.379 2.219-.379 2.219-1 4l-4 1-.188 2.625c-1.043 4.335-2.805 6.136-5.812 9.375 9.134-2.252 17.81-5.35 26.456-9.052 8.993-3.83 18.152-7.113 27.356-10.386 8.641-3.073 17.263-6.147 25.762-9.597 8.055-3.216 16.247-6.078 24.426-8.965v40l-11.398 2.887-11.112 2.82-7.634 1.934c-16.863 4.243-16.863 4.243-33.637 8.82-12.964 3.681-26.097 6.753-39.188 9.95-5.672 1.386-11.343 2.777-17.014 4.167l-6.241 1.528a2667.53 2667.53 0 0 0-21.624 5.384 688.49 688.49 0 0 1-33.402 7.572l-5.004 1.018c-14.208 2.874-28.456 5.49-42.746 7.92-2.808-3.46-3.348-5.257-3.188-9.75l.083-2.984L197 267l-1.828-.184-2.422-.253-2.39-.247c-2.36-.316-2.36-.316-4.2-1.108-2.356-.47-2.356-.47-4.51 1.543l-2.564 2.604-2.805 2.827-1.445 1.495c-1.45 1.5-2.918 2.98-4.39 4.458-5.527 5.354-5.527 5.354-9.446 11.865l2.25.125c3.97 1.263 4.788 3.265 6.75 6.875.496 3.656.496 3.656.438 7.5l-.004 3.844c-.46 3.87-1.428 6.34-3.434 9.656-2.893 2.143-6.424 2.628-9.902 3.34-2.24.589-2.24.589-4.375 2.258-4.162 2.143-7.843 1.226-12.371.64-3.846-.425-3.846-.425-7.375.918-1.152 1.848-1.152 1.848-1.055 4.227 1.525 3.703 4.085 5.377 7.328 7.492l1.68 1.258c4.269 2.82 7.195 2.971 12.254 2.37 7.391-.841 12.781.905 19.629 3.56l3.417 1.256c3.265 1.206 6.518 2.442 9.77 3.681 1.64.602 3.28 1.202 4.922 1.797 7.478 2.725 14.853 5.628 21.996 9.148 2.786 1.32 4.725 2.08 7.832 1.868 2.483-.796 2.483-.796 5.25-2.813 3.688.375 3.688.375 7 1 2.092 4.43 2.092 4.43 1.625 7.313L234 369c.712.13 1.425.258 2.159.391 2.853.612 5.531 1.425 8.298 2.351l3.123 1.043 3.232 1.09 3.198 1.066c4.32 1.449 8.634 2.898 12.888 4.532 5.897 2.244 11.913 4.148 17.914 6.09l1.996.647c12.926 4.185 25.96 7.948 39.055 11.566l2.19.61c1.96.547 3.923 1.088 5.885 1.628C337 401 337 401 340 403c.293 3.258.293 3.258.188 7.125l-.083 3.883L340 417l-3 1a1273.62 1273.62 0 0 0 4.25 12.438l1.2 3.587 1.19 3.409 1.08 3.158L346 443l4 1v15h-29v-13h4l-2-5h-13l-2 5h4v13h-22v-15l4-1c1.397-2.568 1.397-2.568 2.36-5.785l1.19-3.545 1.2-3.733 1.246-3.744c1.016-3.06 2.017-6.124 3.004-9.193h-3l-1-13c-13.112-5.151-26.287-10.113-39.5-15-36.971-13.674-36.971-13.674-53.625-21.313-2.494-1.133-4.99-2.26-7.488-3.386l-1.872-.844c-6.233-2.797-12.519-5.46-18.827-8.082l-2.925-1.216A873.633 873.633 0 0 0 167 351l-2.338-.943c-5.26-2.093-5.26-2.093-10.662-1.057-2.762 2.762-2.579 5.207-3 9l2-.095c3.02-.126 6.04-.203 9.063-.28l3.146-.152c5.112-.098 8.855-.054 12.99 3.172 2.172 2.231 2.79 3.315 3.66 6.39-.292 8.08-.292 8.08-2.984 12.277-3.63 2.132-4.86 1.69-8.875.688-2.746-1.34-2.746-1.34-5.438-2.938-3.16-1.812-5.935-3.341-9.5-4.125C152 372 152 372 150 369.313L148 367c-4.492-.092-7.963 1.338-12.125 2.938-14.944 5.578-31.22 5.556-45.875-.938-7.268-3.576-13.439-7.206-18-14l-1.582-2.313c-8.741-13.611-10.047-29.104-7.098-44.78 3.92-16.763 15.333-27.717 29.18-37.094C96 269 96 269 98.047 269.046c3.764 1.837 4.537 5.96 5.965 9.672 1.365 4.534 1.954 8.612.988 13.281-2 3.063-2 3.063-4 5v1l2.246.262c9.59 1.28 18.543 3.848 27.754 6.738 5.538-6.48 11.049-12.952 16.23-19.723 3.497-4.5 7.145-8.88 10.77-13.277l-.703-1.649a5574.81 5574.81 0 0 1-3.172-7.476l-1.105-2.594c-4.095-9.677-6.408-16.228-2.782-26.511l.716-2.106c.511-1.5 1.026-3 1.545-4.498 1.401-4.053 2.772-8.116 4.146-12.178l.857-2.528c2.796-8.28 5.41-16.613 7.998-24.96 3.93-12.642 8.04-25.213 12.26-37.76a1547.83 1547.83 0 0 0 10.74-33.24c3.931-12.638 8.036-25.207 12.257-37.75a1454.175 1454.175 0 0 0 10.24-31.653c3.558-11.436 7.146-22.862 10.94-34.222l1.072-3.325 1.018-2.995.867-2.61C226 2 226 2 227.67 1.224c3.204-.308 6.36-.354 9.58-.357Zm41.836 218.219c-5.718 3.705-11.557 7.142-17.461 10.539-8.167 4.734-16.28 9.542-24.313 14.5l-2.624 1.612c-7.366 4.105-7.366 4.105-12.688 10.263-.248 4.145-.248 4.145 1 8 6.548-1.333 12.71-3.134 19-5.375l2.92-1.029c3.363-1.19 6.722-2.391 10.08-3.596l2.004-.718a4715.89 4715.89 0 0 0 13.01-4.683l4.289-1.55c7.778-2.806 15.476-5.733 23.09-8.962 3.416-1.425 6.864-2.677 10.357-3.9l3.61-1.269L314 232v-1c-5.186-.17-9.677.065-14.75 1.188-4.868.95-4.868.95-8.188-.25-3.242-3.046-5.643-5.682-7.062-9.938.938-3.188.938-3.188 2-6-2.942 0-4.47 1.476-6.914 3.086ZM317 420a1150.52 1150.52 0 0 0-2 4.875l-1.125 2.742c-.99 2.273-.99 2.273-.875 4.383h8l-3-12h-1Z" style="fill:orange;fill-opacity:1"/>
  <path d="m140.855.902 2.005.005c2.11.005 4.218.018 6.327.03 1.432.006 2.864.01 4.295.014 3.506.01 7.012.03 10.518.049-.55 12.87-1.936 25.535-3.617 38.3l-.781 6.04a7635.38 7635.38 0 0 1-1.64 12.578 9078.637 9078.637 0 0 0-2.074 15.943c-.537 4.15-1.076 8.3-1.616 12.45-.255 1.957-.51 3.914-.763 5.87-1.24 9.533-2.521 19.053-3.972 28.555-1.659 10.868-3.104 21.763-4.54 32.662-.478 3.623-.959 7.245-1.44 10.867a33791.98 33791.98 0 0 0-4.087 30.85c-.835 6.333-1.676 12.665-2.52 18.996-.317 2.39-.633 4.781-.947 7.172-4.618 35.172-4.618 35.172-9.003 40.717l.125 2.5c-.125 2.5-.125 2.5-2.313 4.75-4.717 2.935-8.444 3.054-13.812 1.813-8.887-2.831-13.391-9.906-18.668-17.219-3.073-4.582-3.073-4.582-7.332-7.844l-.188 2.25c-1.085 3.674-2.546 4.82-5.812 6.75-3.628-.095-4.816-.818-7.422-3.398l-2.328-2.977-2.36-2.96c-2.979-4.2-3.504-7.58-2.89-12.665 1.82-1.945 3.873-3.373 6-5-5.13-9.04-10.321-17.69-16.715-25.91-3.596-4.863-6.69-10.02-9.855-15.168-5.535-9.215-5.535-9.215-12.014-17.737-1.77-2.732-1.78-4.359-1.757-7.596l.001-3.275.047-3.517.013-3.615c.017-3.81.054-7.621.093-11.432.015-2.583.028-5.167.04-7.75.034-6.334.084-12.667.147-19 6.25 2.083 8.903 10.725 11.718 16.306 1.382 2.77 2.75 5.548 4.116 8.326 6.044 12.277 12.18 24.497 18.596 36.584a614.418 614.418 0 0 1 8.795 17.272c2.043 4.144 4.238 8.183 6.496 12.213 2.067 3.716 4.05 7.474 6.029 11.237l1.285 2.44c4.444 8.48 8.72 17.041 12.965 25.622-2.484-11.017-5.986-21.694-9.438-32.438l-2.59-8.108-1.676-5.239a938.4 938.4 0 0 1-5.359-17.313c-.95-2.94-2.039-5.812-3.135-8.7-1.475-4.05-2.72-8.17-3.99-12.288l-.906-2.917c-.64-2.058-1.278-4.116-1.915-6.174-5.349-17.264-10.76-34.504-16.401-51.674a773.519 773.519 0 0 1-6.395-20.465l-.665-2.23C46 70.241 46 70.241 46 68c8.81-2.937 18.835-2.12 28-2 1.86 6.634 3.564 13.261 5 20l.883-1.906c2.082-4.349 4.148-8.33 7.18-12.094 2.373-2.954 3.541-5.52 4.687-9.125C94.065 56.68 98.2 54.678 104 52l3.11-1.508c5.525-2.515 8.824-3.937 14.89-2.492 2.327 5.984 4.43 11.58 5 18h2l-.015-2.684a805.75 805.75 0 0 1 .387-27.15c.065-2.165.125-4.33.185-6.494.266-9.244.76-18.45 1.443-27.672 3.478-1.16 6.188-1.113 9.855-1.098ZM101 245l1 2Zm2 4 1 2Zm161 77c6.58 3.358 10.015 9.023 14 15 2.048.656 2.048.656 4.479.872l2.856.356 3.142.35 3.296.4c3.616.437 7.234.854 10.852 1.272 2.528.302 5.055.606 7.583.912 4.606.555 9.212 1.107 13.82 1.652 13.101 1.55 26.193 3.176 39.284 4.811l3.536.44c14.65 1.826 29.287 3.718 43.902 5.81l2.2.314c13.405 1.922 13.405 1.922 16.05 2.811 1.24 2.482 1.13 4.164 1.133 6.938l.004 2.96-.012 3.102.012 3.102-.004 2.96-.004 2.723C430 385 430 385 429 387c-7.214-.68-14.215-1.929-21.313-3.375l-3.185-.633c-5.171-1.042-10.296-2.17-15.404-3.488-6.727-1.716-13.518-2.964-20.348-4.192l-3.738-.681c-3.004-.547-6.007-1.09-9.012-1.631l.945 2.012 1.18 2.675 1.195 2.637c.85 3.343.367 4.71-1.32 7.676-3.209 2.14-5.053 2.5-8.813 3.063l-3.082.472L343 392l-2.93.73c-3.98.35-6.817-.92-10.382-2.48-5.782-2.377-11.189-3.835-17.375-4.688-10.602-1.555-20.557-5.93-27.313-14.562-1.094-2.872-1.278-4.166-.313-7.063 1.54-2.271 3.31-4.068 5.313-5.937l-2.545-.402c-3.604-.624-7.157-1.376-10.728-2.164l-4.38-.96-2.328-.511c-16.298-3.574-32.631-6.941-49-10.172-3.882-.766-7.763-1.538-11.642-2.315-1.638-.328-3.276-.654-4.914-.98-2.549-.507-5.096-1.024-7.643-1.543l-2.322-.458c-5.064-1.045-9.694-2.576-14.498-4.495v-2c7.094-.155 13.9.456 20.938 1.313 11.236 1.312 22.48 2.399 33.75 3.375l2.321.2c4.33.375 8.66.746 12.991 1.112l.36-1.876.503-2.46.486-2.439c.651-2.225.651-2.225 2.839-4.85 3.811-1.864 5.754-1.514 9.812-.375Zm146.063-34.062c1.873.005 3.746.01 5.619.013 4.44.01 8.878.03 13.318.049v29a24131.29 24131.29 0 0 1-73.083-4.799c-5.842-.391-11.684-.781-17.527-1.17-5.76-.382-11.522-.767-17.283-1.154a7018.78 7018.78 0 0 0-6.468-.43 1398.029 1398.029 0 0 1-37.854-3.006 626.133 626.133 0 0 0-16.34-1.293l-2.798-.193c-2.84-.195-5.681-.388-8.522-.58l-5.914-.406c-4.737-.326-9.474-.648-14.211-.969l1 2c.412 4.636-.125 7.304-3 11-2.834 2.227-4.069 1.993-7.75 1.625L216 321l-1-6-3.188 1.438c-7.44 3.122-7.44 3.122-11.875 1.312L197 316l-2.375-1.125c-2.426-2.8-1.926-5.425-1.766-9.012L193 304l-7-1 1-2c2.27-.387 2.27-.387 5.321-.581l3.456-.231 3.794-.221 3.946-.25c14.059-.874 28.13-1.501 42.203-2.098 3.687-.158 7.373-.319 11.06-.48 6.185-.268 12.37-.534 18.555-.798 7.049-.301 14.098-.606 21.146-.914 6.905-.301 13.81-.6 20.716-.897l8.643-.374c15.3-.665 30.601-1.264 45.909-1.734.682-.02 1.364-.042 2.067-.064 12.085-.373 24.157-.48 36.247-.42ZM203 403h34l5 13 3 4 7-17h34v14h-4v27h4v15h-29v-15h4l-1-23-14 38h-10c-1.674-4.304-3.346-8.61-5.017-12.915a6673.14 6673.14 0 0 0-1.705-4.388c-.82-2.11-1.64-4.22-2.458-6.33l-.764-1.96c-1.463-3.78-2.773-7.557-4.056-11.407l-1 22h4v15h-22v-15h4v-27h-4v-14Zm149 0h38v12l-3 1 7 5 5-5-3-1v-12h32v14l-3.938.063c-6.036.638-9.714 3.939-14.062 7.937l-1.758 1.602c-1.463 1.335-1.463 1.335-1.242 3.398a162.14 162.14 0 0 0 6.875 5.5c1.29.988 2.579 1.978 3.867 2.969l1.746 1.326C421 441 421 441 423 443l7 1v15h-38v-13l3-1c-2.229-2.646-2.229-2.646-5-5-3.078-.093-3.979.98-6.25 3.063L382 445l3 1v13h-33v-15l3.531-.152c5.133-.642 8.133-3.114 11.969-6.41l1.914-1.577A381.636 381.636 0 0 0 374 432c-1.3-3.9-3.231-5.032-6.438-7.563-5.46-4.336-5.46-4.336-7.562-6.437-2.655-.565-5.291-.738-8-1v-14Zm77-144v24c-31.395 1.502-62.788 2.602-94.207 3.47-8.975.248-17.95.5-26.925.756-3.068.087-6.137.171-9.205.255-10.064.28-20.116.645-30.17 1.19-5.752.31-11.482.457-17.243.392l-2.473-.014c-1.925-.012-3.851-.03-5.777-.049l1-2c10.281-3.045 21.288-4.254 31.871-5.89l5.141-.805c4.54-.71 9.08-1.416 13.621-2.12 3.76-.583 7.52-1.17 11.28-1.757 22.591-3.523 45.19-6.98 67.811-10.304 11.355-1.671 22.684-3.444 33.995-5.397 1.113-.19 1.113-.19 2.25-.382 1.834-.312 3.667-.629 5.5-.947 4.484-.505 9.019-.398 13.531-.398ZM92 403h40v14l-3 1a1273.62 1273.62 0 0 0 4.25 12.438c.396 1.184.791 2.368 1.2 3.587l1.19 3.409 1.08 3.158L138 443l4 1v15h-29v-13h4l-1-6-14 1-2 5h4v13H82v-15l4-1c1.397-2.568 1.397-2.568 2.36-5.785l1.19-3.545 1.2-3.733 1.246-3.744c1.016-3.06 2.017-6.124 3.004-9.193h-3v-14Zm17 17a1150.52 1150.52 0 0 0-2 4.875l-1.125 2.742c-.99 2.273-.99 2.273-.875 4.383h8l-3-12h-1Zm32-17h56v24h-11v-10h-6v27h5v15h-32v-15h5v-27h-5v10h-12v-24Zm-111 0h55v19H70v-5H58v7h10v13H58v8h7v14H30v-15h6v-27h-6v-14ZM211 22c1.667 1.667 1.211 3.629 1.25 5.918-.061 5.908-1.284 10.856-3.25 16.395l-.96 2.749C203.452 59.74 197.852 71.95 185 78c-3.94.035-5.431-.461-8.3-3.18l-2.012-2.695-2.051-2.68c-3.28-4.9-3.304-9.738-2.637-15.445 2.843-9.914 7.183-22.039 16-28 8.051-3.58 16.215-6.46 25-4Z" style="fill:orange;fill-opacity:1"/>
  <path d="M273 313c1.82.05 1.82.05 4.125.313l2.258.238C282 314 282 314 285.18 314.988c4.62 1.224 9.067 1.546 13.82 1.887 23.022 1.943 23.022 1.943 27.824 7.074 2.384 4.158 3.695 8.247 3.176 13.051-2 3-2 3-3.936 3.508l-2.353.187-2.606.23c-.9.067-1.802.132-2.73.2l-5.29.445-2.618.2c-2.211.206-4.347.547-6.533.925-4.867.377-8.616-.556-13.247-1.945l-2.416-.66c-3.927-1.13-6.562-1.892-9.271-5.09-.809-2.05-.809-2.05-1.438-4.313-.971-3.194-1.812-5.05-3.75-7.875-2.095-3.25-2.253-5.017-1.812-8.812l1-1ZM168.188 141.676C170 143 170 143 170.75 146.125c.49 7.586.292 12.85-2.5 19.875-2.485 6.551-4.411 13.035-5.78 19.91-.661 3.017-1.217 4.835-3.415 7.055-2.71 1.365-4.214.903-7.055.035l-.867-3.48a864.537 864.537 0 0 0-2.203-8.633c-4.937-19.371-4.937-19.371-1.43-27.262 2.608-2.738 5.08-4.52 8.344-6.383 2.194-1.224 2.194-1.224 4.312-2.734l2.094-1.446 1.89-1.34c1.86-.722 1.86-.722 4.048-.046ZM182 82c1.034 6.94 1.286 13.8 1.375 20.813l.113 3.369c.086 8.092-1.65 13.741-5.488 20.818l-1.688 3.625C175 133 175 133 173 134c-1.938-.5-1.938-.5-4-2-2.73-5.231-4.337-10.915-6.133-16.523-.636-2.39-.636-2.39-1.867-3.477.33-5.598 1.925-8.432 5-13a190.108 190.108 0 0 0 1.813-5.5c2.233-6.447 6.473-12.903 14.187-11.5Zm205 4c2.968 7.137 5.49 14.163 5 22-2.507 5.129-8.043 8.356-13 11-3 .813-3 .813-6 0-4.372-2.81-8.104-5.656-11-10-.76-3.77-.737-7.356.852-10.898C367.662 91.578 378.77 85.238 387 86ZM140 276c1.8 1.395 1.8 1.395 3 3-.177 4.784-1.111 8.182-4 12-2.748 2.466-5.472 4.824-9 6-3.118-.271-5.79-.929-8.75-1.938-4.345-1.42-8.76-2.228-13.25-3.062-.606-4.851-.183-7.27 2.75-11.25 7.733-9.764 18.374-9.444 29.25-4.75Zm-66.125-14.562c4.285.77 5.997 2.583 9.125 5.562-.722 4.876-3.582 7.85-7.313 10.875-3.552 1.487-5.981.924-9.687.125-1.188-2.063-1.188-2.063-2-5 1.764-5.586 3.775-10.369 9.875-11.563Z" style="fill:orange;fill-opacity:1"/>
</svg>
